<svg xmlns="http://www.w3.org/2000/svg" width="34.833" height="365.792" viewBox="0 0 34.8 365.8"><path fill="gray" d="M11.9 170c1.2-3.3 4.3-4.9 7.7-4s4.5 4.8 3.9 7.9c-1.5 8-13.9 3.8-11.9-3.9.4-1.5-1.9-2.1-2.3-.6-2.7 10.2 12.2 16 16.3 5.9 1.7-4.1-.6-9.7-4.7-11.3-4.9-1.9-9.5.7-11.4 5.4-.5 1.5 1.9 2.1 2.4.6z"/><path fill="gray" d="M31.6 193.1s-5.2 0-6.8.2c-4.4.3-21.3-.5-21.3-.5-.7 0-1.2-.6-1.2-1.2 0-3.2-.6-7.1 4-9.2 1.2-.6 2.8-1.5 4.3-1.9.4-.1.9 0 1.2.3 1.6 1.6 3.5 3 5.7 3 2.1 0 4.3-1.3 5.8-2.8.3-.3.8-.4 1.2-.3 1.6.4 2.9 1 4.1 1.8 3.8 2.6 4.1 5.8 4.1 9.4.1.6-.4 1.2-1.1 1.2zm-27.2-2.5s3.8.2 8.7.4 17.2.1 17.2.1c-.1-2.9-.7-5-3-6.6-.8-.5-1.7-1-2.7-1.3-1.9 1.5-4.3 2.4-6.8 2.4-2.7 0-5.2-.9-7.1-2.7-1.1.3-2.2.7-3.1 1.1-2.6 1.1-3.1 3.5-3.2 6.6z"/><path fill="#FFF" d="M11.9 8.6c1.2-3.3 4.3-4.9 7.7-4s4.5 4.8 3.9 7.9c-1.5 8-13.9 3.8-11.9-3.9.5-1.6-1.8-2.2-2.2-.6-2.7 10.2 12.2 16 16.3 5.9 1.7-4.1-.6-9.7-4.7-11.3C16.1.7 11.5 3.3 9.6 8c-.6 1.5 1.8 2.1 2.3.6z"/><path fill="#FFF" d="M31.6 31.7s-5.2 0-6.8.2c-4.4.3-21.3-.5-21.3-.5-.7 0-1.2-.6-1.2-1.2 0-3.2-.6-7.1 4-9.2 1.2-.6 2.8-1.5 4.3-1.9.4-.1.9 0 1.2.3 1.6 1.6 3.5 3 5.7 3 2.1 0 4.3-1.3 5.8-2.8.3-.3.8-.4 1.2-.3 1.6.4 2.9 1 4.1 1.8 3.8 2.6 4.1 5.8 4.1 9.4.1.6-.4 1.2-1.1 1.2zM4.4 29.1s3.8.2 8.7.4 17.2.1 17.2.1c-.1-2.9-.7-5-3-6.6-.8-.5-1.7-1-2.7-1.3-1.9 1.5-4.3 2.4-6.8 2.4-2.7 0-5.2-.9-7.1-2.7-1.1.3-2.2.7-3.1 1.1-2.6 1.2-3.1 3.6-3.2 6.6z"/><path d="M12 341c1.2-3.3 4.3-4.9 7.7-4 3.4.9 4.5 4.8 3.9 7.9-1.5 8-13.9 3.8-11.8-3.9.4-1.5-1.9-2.1-2.3-.6-2.7 10.2 12.1 16 16.3 5.9 1.7-4.1-.6-9.7-4.7-11.2-4.9-1.9-9.5.7-11.3 5.4-.7 1.4 1.7 2 2.2.5z"/><path d="M31.7 364s-5.2 0-6.8.2c-4.4.3-21.3-.5-21.3-.5-.7 0-1.2-.6-1.2-1.2 0-3.2-.6-7.1 4-9.2 1.2-.6 2.8-1.5 4.3-1.9.4-.1.9 0 1.2.3 1.6 1.6 3.5 3 5.7 3 2.1 0 4.3-1.3 5.8-2.8.3-.3.8-.4 1.2-.3 1.6.4 2.9 1 4.1 1.8 3.8 2.6 4.1 5.8 4.1 9.4.1.6-.4 1.2-1.1 1.2zm-27.2-2.5s3.8.2 8.7.4c4.9.2 17.2.1 17.2.1-.1-2.9-.7-5-3-6.6-.8-.5-1.7-1-2.7-1.3-1.9 1.5-4.3 2.4-6.8 2.4-2.7 0-5.2-.9-7.1-2.7-1.1.3-2.2.7-3.1 1.1-2.6 1.2-3.1 3.6-3.2 6.6z"/></svg>