<svg xmlns="http://www.w3.org/2000/svg" width="13.365" height="89.221" viewBox="0 0 13.365 89.221"><path d="M8.174 1.464c-2.15 1.788-3.802 4.044-5.9 5.9-.597.528-.572 1.59 0 2.12 2.12 1.97 4.112 3.997 6.1 6.1 1.33 1.41 3.448-.715 2.12-2.12-1.987-2.104-3.98-4.13-6.1-6.1v2.12c2.1-1.855 3.75-4.11 5.9-5.9 1.49-1.237-.644-3.347-2.12-2.12z"/><path fill="#FFF" d="M8.174 73.637c-2.15 1.788-3.802 4.044-5.9 5.9-.597.528-.572 1.59 0 2.12 2.12 1.97 4.112 3.997 6.1 6.1 1.33 1.41 3.448-.715 2.12-2.12-1.987-2.104-3.98-4.13-6.1-6.1v2.12c2.1-1.855 3.75-4.11 5.9-5.9 1.49-1.237-.644-3.347-2.12-2.12z"/></svg>