<svg xmlns="http://www.w3.org/2000/svg" viewBox="0 0 26.39 290.98" preserveAspectRatio="xMinYMin" width="27px" height="291px"><defs><style>.a{fill:#fff}.b{fill:gray}.c{fill:#1d1d1b}</style></defs><path class="a" d="M5.78 10.96c.55-11 17.25-12 18.15-.67 1 12.49-17.69 13.33-18.34.86-.08-1.54-2.48-1.55-2.4 0 .34 6.42 4.75 11.26 11.25 11.59 6.85.39 11.3-5.09 11.89-11.4 1.4-15-22.21-15.15-22.94-.42-.08 1.55 2.32 1.54 2.4 0z"/><path class="a" d="M1.99 29.26c2.23-2.69 4.27-5.52 6.66-8.09 1.06-1.13-.64-2.83-1.7-1.7-2.39 2.56-4.42 5.4-6.66 8.08-1 1.18.71 2.89 1.7 1.7z"/><path class="b" d="M5.78 130.96c.55-11 17.25-12 18.15-.67 1 12.49-17.69 13.33-18.34.86-.08-1.54-2.48-1.55-2.4 0 .34 6.42 4.75 11.25 11.25 11.59 6.85.39 11.3-5.09 11.89-11.4 1.4-15-22.21-15.15-22.94-.41-.08 1.55 2.32 1.54 2.4 0z"/><path class="b" d="M1.99 149.26c2.23-2.68 4.27-5.53 6.66-8.08 1.06-1.13-.64-2.83-1.7-1.7-2.39 2.56-4.42 5.4-6.66 8.08-1 1.18.71 2.89 1.7 1.7z"/><path class="c" d="M5.78 272.28c.55-11 17.25-12 18.15-.67 1 12.49-17.69 13.33-18.34.86-.08-1.54-2.48-1.55-2.4 0 .34 6.42 4.75 11.27 11.25 11.63 6.85.39 11.3-5.09 11.89-11.4 1.4-15-22.21-15.15-22.94-.42-.08 1.55 2.32 1.54 2.4 0z"/><path class="c" d="M1.99 290.58c2.23-2.68 4.27-5.53 6.66-8.08 1.06-1.13-.64-2.83-1.7-1.7-2.39 2.56-4.42 5.4-6.66 8.08-1 1.18.71 2.89 1.7 1.7z"/></svg>