<svg xmlns="http://www.w3.org/2000/svg" width="39.477" height="175.518" viewBox="0 0 39.477 175.518"><path fill="#FFF" d="M21.957 1.203c-5.81-.566-12.86-.26-16.583 4.86C3.7 8.37 3.64 12.187 4.74 14.713c1.695 3.9 5.128 5.436 9.006 6.4-.238 2.11-.045 4.21.02 6.373.035 1.096 1.493 1.91 2.305.957a51.623 51.623 0 0 1 6.14-6.074c2.05-1.73 4.06-1.35 6.29-2.47 3.02-1.51 6.22-4.31 6.48-7.94.51-7.11-6.253-10.1-13.02-10.76zm7.73 15.724c-2.497 1.92-5.45 1.213-7.844 3.043a50.975 50.975 0 0 0-5.744 5.15c-.05-1.454-.01-2.902.35-4.356.33-1.358-1.17-2.122-2.11-1.646-3.85-.93-7.2-2.278-8.318-6.532-.78-2.982.624-5.783 3.07-7.41C13.102 2.506 19.81 2.69 24.3 3.528c6.68 1.245 13.085 7.475 5.383 13.4z"/><path fill="gray" d="M22.957 145.203c-5.81-.566-12.86-.26-16.583 4.86-1.675 2.305-1.734 6.123-.635 8.65 1.69 3.9 5.12 5.435 9 6.4-.24 2.11-.048 4.21.02 6.372.032 1.096 1.49 1.91 2.302.957a51.623 51.623 0 0 1 6.137-6.074c2.047-1.722 4.06-1.35 6.29-2.464 3.02-1.508 6.215-4.306 6.476-7.94.513-7.11-6.254-10.103-13.017-10.76zm7.73 15.724c-2.497 1.92-5.45 1.213-7.844 3.043a50.975 50.975 0 0 0-5.744 5.15c-.05-1.454-.01-2.902.35-4.356.33-1.358-1.17-2.122-2.11-1.646-3.85-.93-7.2-2.278-8.318-6.532-.78-2.983.623-5.783 3.07-7.41 4.006-2.67 10.71-2.485 15.202-1.648 6.68 1.245 13.084 7.475 5.382 13.4z"/></svg>