<svg xmlns="http://www.w3.org/2000/svg" width="357" height="43" viewBox="0 0 357 43"><path fill="#FFF" d="M210.5 23.2c-4.8 0-8.7 3.9-8.7 8.6 0 4.8 3.9 8.6 8.7 8.6s8.7-3.9 8.7-8.6c-.1-4.8-3.9-8.6-8.7-8.6zm0 16.9c-4.6 0-8.3-3.7-8.3-8.4 0-4.6 3.7-8.3 8.3-8.3s8.4 3.7 8.4 8.3c-.1 4.7-3.8 8.4-8.4 8.4z"/><path d="M207.3 29.6h.5V32c0 .4 0 .7-.1 1-.1.2-.3.4-.5.6-.2.2-.6.2-1 .2s-.7-.1-.9-.2c-.2-.1-.4-.3-.5-.6s-.2-.6-.2-1v-2.4h.5V32c0 .4 0 .6.1.8s.2.3.3.4c.2.1.4.1.6.1.4 0 .7-.1.9-.3s.3-.5.3-1v-2.4zm3 4.1l-1.6-4.1h.6l1.1 3c.1.2.2.5.2.7.1-.2.1-.4.2-.7l1.1-3h.6l-1.6 4.1h-.6zm2.2 0l1.6-4.1h.6l1.7 4.1h-.6l-.5-1.2h-1.7l-.4 1.2h-.7zm1.2-1.7h1.4l-.4-1.1c-.1-.3-.2-.6-.3-.8-.1.3-.1.5-.2.8l-.5 1.1z" fill="#FFF"/><path fill="#1D1D1B" d="M210.5 2.2c-4.8 0-8.7 3.9-8.7 8.6 0 4.8 3.9 8.6 8.7 8.6s8.7-3.9 8.7-8.6c-.1-4.8-3.9-8.6-8.7-8.6zm0 16.9c-4.6 0-8.3-3.7-8.3-8.4 0-4.6 3.7-8.3 8.3-8.3s8.4 3.7 8.4 8.3c-.1 4.7-3.8 8.4-8.4 8.4z"/><path d="M207.3 8.6h.5V11c0 .4 0 .7-.1 1-.1.2-.3.4-.5.6-.2.2-.6.2-1 .2s-.7-.1-.9-.2c-.2-.1-.4-.3-.5-.6s-.2-.6-.2-1V8.6h.5V11c0 .4 0 .6.1.8s.2.3.3.4c.2.1.4.1.6.1.4 0 .7-.1.9-.3s.3-.5.3-1V8.6zm3 4.1l-1.6-4.1h.6l1.1 3c.1.2.2.5.2.7.1-.2.1-.4.2-.7l1.1-3h.6l-1.6 4.1h-.6zm2.2 0l1.6-4.1h.6l1.7 4.1h-.6l-.5-1.2h-1.7l-.4 1.2h-.7zm1.2-1.7h1.4l-.4-1.1c-.1-.3-.2-.6-.3-.8-.1.3-.1.5-.2.8l-.5 1.1z" fill="#1D1D1B"/><path d="M83.4 11.5c1.4 1 2.4 2.5 3.7 3.6.3.3.8.3 1.1 0 .7-.7 1.5-1.4 2.2-2.1.5-.5 1.3-1.1 1.6-1.7.4-.9-.9-1.6-1.3-.8-.3.6-1.1 1.2-1.6 1.6-.6.6-1.3 1.2-1.9 1.9h1.1c-1.4-1.2-2.5-2.7-4-3.9-.9-.5-1.7.8-.9 1.4zM24.3 8.1c-7.4.1-14.7.2-22.1.1-.7 0-1.2.5-1.2 1.2 0 3.5 0 6.3 2.3 9.1s6.4 2.4 9.6 2.4c3.1 0 6.9.5 9.5-1.6 3.1-2.6 3-5.9 3-9.6 0-1.5-2.4-1.5-2.4 0 0 2.6.4 5.1-1.5 7.2-1.8 2-5.3 1.5-7.7 1.5-2.2 0-4.5.2-6.6-.3-4.1-1-3.8-5.6-3.8-8.7l-1.2 1.2c7.4.1 14.8 0 22.2-.1 1.5 0 1.5-2.4-.1-2.4z"/><path d="M9.9 9c0-2.8-.2-6.2 3.6-6.4 3.8-.2 3.6 3.9 3.6 6.4 0 1.5 2.4 1.5 2.4 0s.1-3-.2-4.4c-.5-2.3-3-4.2-5.3-4.3-2.6-.1-5 1.2-6.1 3.6-.6 1.5-.4 3.4-.4 5.1 0 1.5 2.4 1.5 2.4 0zm44.3 1c-.3-2.6-4.7-4.3-10.4-4.3 5.1.1 9.1 1.8 9.4 4.4.3 2.6-3.1 5.2-8 6.6 5.5-1.4 9.3-4.1 9-6.7zm-25.7 3.2c-.3-2.6 3.1-5.2 8-6.6-5.5 1.4-9.4 4.1-9 6.7.3 2.6 4.7 4.3 10.4 4.3-5.1-.1-9-1.8-9.4-4.4z"/><path d="M45.2 8v.1s.1 0 0-.1zm-9.1.7c.3-.8 1.1-1.3 1.5-1.5-4.8 1.1-8.2 3.6-7.9 5.9.3 2.7 5.6 4.3 11.7 3.6 0 0-2.1-5.4-2.9-7.4-.9-2.1-2.4-.6-2.4-.6z"/><path d="M52.1 10.3c-.4-2.7-5.7-4.3-11.8-3.6-.9.1-1.7.3-2.5.4.4-.1.8 0 1.6 1 .9 1.2 1.9 4 1.9 4s.4-1.5.8-2.4 1.4-1.4 2.3-1.1c.9.3 1.4 1.5 1.4 1.5s-.5-.6-1.4-.6c-.9.1-1.4.9-1.7 2.2s-.3 4.3-.3 4.3l-1.1.4h.1c6.3-.5 11-3.4 10.7-6.1zm-6.8-1.5c-.3 0-.6-.3-.6-.6s.3-.6.6-.6.6.3.6.6-.3.6-.6.6z"/><path d="M45.3 7.7c-.3 0-.5.2-.5.5s.2.5.5.5.5-.2.5-.5c-.1-.3-.3-.5-.5-.5zm0 .8l-.1-.2.1.2H45v-.7h.4s.2 0 .2.2-.1.2-.1.2l.1.3h-.3z"/><path opacity=".7" fill="#333" d="M37.6 7.2c.1 0 .1 0 0 0z"/><path d="M66.3 7.6v-.2c-.1.1-.2.1-.3.2-.9.5-1.8.8-2.4.8s-.9-.3-1-.5-.2-.7.4-1.5c.4-.5 1-1 1.7-1.4.6-.3 1.2-.6 1.8-.7l-.1-.2c0-.2-.3-.4-.4-.6 0 .4-.3.8-.3.8l-.1.1h-.1c-.1 0-.2-.1-.4-.2 0 .3-.1.5-.1.5l-.1.1h-.1c-.1-.1-.3-.2-.4-.2 0 .2-.1.4-.1.5v.1h-.1c-.3-.1-.6-.2-.7-.3 0 .4.1.8.1.8v.1h-.4c-.3 0-.5-.1-.7-.1.1.3.3.5.3.5l.2.1-.2.1c-.5.2-.9.3-1.1.4h.4l.4.1-.5.2c-.2.1-.5.3-.6.4.4 0 .7.1.7.1l.2.1-.2.1c-.2.2-.4.4-.5.6.4-.1.8 0 .8 0h.2l-.2.2c-.1.1-.2.3-.2.4.4-.3 1-.4 1-.4h.2v.6c.3-.3.7-.6.7-.6l.2-.1v.2c0 .1 0 .2.1.3.2-.3.6-.7.6-.7l.1-.1v.2c0 .2.1.4.1.6.2-.3.4-.7.4-.7v-.1h.1c.2.1.3.1.4.2.2-.4.2-.8.2-.8z"/><path d="M68 4.8c.4.8-.5 1.8-1.7 2.6l.2.1c.1.1.2.2.4.3 0-.3.1-.6.1-.6v-.1h.1c.1 0 .2.1.3.1v-.6h.8c-.2-.1-.2-.3-.2-.3l-.1-.2h1c-.3-.2-.4-.5-.4-.5l-.1-.1h.1c.2 0 .3-.1.4-.2h-.2l-.3-.1.4-.2c.1-.1.4-.3.6-.5-.5.1-.9.2-.9.2l-.2.1.1-.2c0-.1.2-.5.3-.7-.3.2-.5.4-.6.4l-.2.2v-.3c0-.2.1-.4.2-.6-.5.3-1 .7-1 .7H67l-.1-.1c-.1-.1-.1-.3-.1-.4-.3.2-.3.4-.3.4l-.1.2c.2 0 .4-.1.6-.1.6 0 .9.2 1 .5zm13.1 9.4c-.3 0-.5.2-.5.5s.2.5.5.5.5-.2.5-.5-.2-.5-.5-.5zm.2.9v-.2c0-.1 0-.1-.1-.1H81v.3h-.1v-.7h.3c.1 0 .2.1.2.2s0 .1-.1.2c.1 0 .1.1.1.1l-.1.2z"/><path d="M81.2 14.5H81v.2h.2c.1 0 .2 0 .2-.1-.1 0-.2-.1-.2-.1zM62.9 6.4c-.6.8-.5 1.2-.4 1.5.1.2.4.5 1 .5.7 0 1.6-.3 2.4-.8.1-.1.2-.1.3-.2 1.2-.8 2.1-1.9 1.7-2.6-.1-.2-.4-.5-1-.5-.2 0-.4 0-.6.1l-.1.1v-.1c-.5.1-1.2.4-1.8.7-.5.4-1.1.9-1.5 1.3zm4.8-1.5c.3.5-.6 1.6-1.9 2.4s-2.7 1-3 .4c-.3-.5.6-1.6 1.9-2.4 1.4-.7 2.7-.9 3-.4zm-1.3 3.7v-.1c0-.1 0-.2.1-.3V8l-.2.3-.1-.1v.2c.1 0 .1.1.1.1l.1.1z"/><path d="M69.6 11.1c-.2.1-.4.2-1.1.3-.7 0-1.3.3-1.6.7-.3.5-.2 1.2-.1 1.7 0 0 .3-1 .7-1.4.4-.3 1.1-.3 1.1-.3s-1.8 1.7-2.5 3.2c0 0-.4.9-.5 1l-.1.1s0-.9-.1-1.3-.2-1.5-.2-2c.1-.5.4-1.4.6-2s.5-1.3.5-2.4v-.9l.3.3.2.3.2-.4c0-.2.1-.5.2-.7.2.1.2.3.2.3l.2.5.1-.6v-.6h1.1l-.2-.2c-.1-.1-.2-.3-.3-.4h.1c.4 0 .8-.1.8-.1l.3-.1-.3-.2c-.2-.1-.4-.3-.5-.5.4-.2.8-.5.8-.5l.5-.5-.7.3c-.1 0-.2.1-.2.1.2-.2.5-.5.5-.6l.2-.2h-.3c-.4 0-.8.1-1 .2.3-.1.5-.6.5-.6l.2-.3-.3.2c-.2.1-.5.3-.6.4.1-.3.3-.6.3-.6l.2-.4-.4.2c-.5.2-1 .6-1.2.8v-.6l-.2.1c-.2.2-.4.3-.5.5-.2-.3-.6-.6-.6-.6l-.4-.3.1.3c.1.3-.1.7-.2.9-.2-.1-.5-.3-.5-.3l-.3-.2.1.3c.1.2 0 .4 0 .5-.2-.1-.3-.3-.3-.3l-.1-.2-.1.2c0 .1-.1.4-.1.6-.4-.1-.7-.3-.7-.3l-.2-.1v.2c0 .4 0 .7.1.9h-.1c-.4 0-.8-.2-.8-.2l-.2-.1v.2c.1.3.2.6.3.7-1 .3-1.4.6-1.4.6l-.4.3h.9c-.4.3-.6.5-.6.6l-.2.2h1c-.3.3-.5.7-.5.7l-.1.3.3-.1c.2-.1.5-.1.7-.1-.2.3-.2.7-.2.7l-.1.4.3-.2c.3-.3.8-.4 1-.5v.6l.1.3.2-.3c0-.4.3-.6.5-.8.1.2.2.4.2.5l.2.4.1-.5c0-.2.3-.5.5-.7v.9l.2-.2c.3-.2.5-.7.6-.9.1.1.3.1.3.2v.9c0 .5-.3 1.1-.5 1.7-.3.6-.6 1.6-.6 2.2 0 .6.1 2.7.1 2.7H65s-1.1-3.8-4-4.6c0 0 3.7 3.1 3.7 7.5H66s-.1-3 1.7-4.9c0 0 .8.3 1.4-.4.6-.6.4-1.3.5-1.7s.7-1.3.7-1.3-.4.4-.7.5zm-3.8-3l-.1.1s-.2.4-.4.7c0-.2 0-.4-.1-.6v-.2l-.1.1c-.1 0-.4.4-.6.7 0-.1-.1-.2-.1-.3v-.2l-.2.1s-.4.2-.7.6v-.6h-.2s-.6.1-1 .4c0-.1.1-.3.2-.4l.2-.2h-1c.1-.2.3-.4.5-.6l.2-.1H62s-.3-.1-.7-.1c.1-.1.4-.3.6-.4l.3-.2-.4-.1h-.4c.2-.1.6-.3 1.1-.4l.2-.1-.2-.1s-.2-.2-.3-.5c.2.1.4.1.7.1h.4v-.1s-.1-.4-.1-.8c.2.1.4.2.7.3h.1v-.1c0-.1 0-.3.1-.5.1.1.2.2.4.2h.1l.1-.1s.1-.2.1-.5c.1.1.3.2.4.2h.1l.1-.1s.3-.4.3-.8c.3.2.5.5.6.6l.1.2h.1l.1-.2s.1-.2.3-.4c0 .2 0 .4.1.4v.2l.1-.1s.5-.4 1-.7c-.1.2-.2.4-.2.6v.3l.2-.2.6-.4c-.1.2-.2.6-.3.7l-.1.2.2-.1s.4-.1.9-.2c-.2.2-.4.4-.6.5l-.3.1.3.1h.2c-.1.1-.3.2-.4.2h-.1l.1.1s.1.3.4.5h-1v.4s.1.2.3.5h-.7v.6c-.1-.1-.2-.1-.3-.1h-.1v.1L67 8c-.1-.1-.2-.2-.4-.3l-.2-.1v.2s0 .4-.1.7c-.2-.3-.3-.4-.5-.4zm.6-3.7s-.1 0 0 0zm0 0s-.1 0 0 0zm-.1 3zm0 0z"/><path d="M68.4 14.9c-1.7 0-1.7 1.9-1.7 2.2 0 .3.2 1.3 1.1 1.8s1.4 0 1.7-.3c.3-.3.4-.5.4-.6s-.1-.3-.2-.2-.6.5-.9.6-.6 0-.7-.1-.3-.4-.3-.6-.1-.5-.1-.5H70c-.1-.1.1-2.3-1.6-2.3zm.6 1.6h-1.2s-.1-1.1.6-1.1c.6 0 .6 1.1.6 1.1zm4.3 1.8s-.2 0-.2-.2.1-.2.2-.3c.1-.1.7-.5.7-1.2s-.8-1.3-.8-1.3-.1-.1-.1-.2.2-.2.3-.2.3.1.3.1.3.2.5.2.6-.1.7-.8c0 0-.3.3-.7.2-.4-.1-.7-.2-.9-.1-.3.1-.4.4-.4.5 0 0-.6-.2-1-.1s-1.2.2-1.6.9c-.4.7-.1 1.6.1 1.8s.7.5 1.1.6 1.2.4 1.4.8c.2.4-.1 1-.5 1.2s-1.1.4-1.5-.2 0-.9.1-.9c.1-.1.3 0 .4.1s.4.4.7.1c.2-.3.2-.8-.4-.9-.5-.2-1-.1-1.3.2s-.6 1.1-.2 1.8 1.2.8 1.8.8c.6 0 1.1-.3 1.5-.8s.6-1 .3-1.5c-.1-.5-.5-.6-.5-.6zm-.8-1.1c0 .3-.3.6-.6.6s-.6-.3-.6-.6v-1.1c0-.3.3-.6.6-.6s.6.3.6.6v1.1z"/><path d="M81 18.5c-.2-.1-.3-.1-.3-.4s.1-1.9.1-1.9.1-.6-.3-.9c-.3-.3-.8-.4-1.1-.3-.3.1-.6.4-.6.4v-.2s0-.3-.3-.3-.8.3-1 .4c-.2.1-.2.4 0 .5.3.2.2.1.2.2v1.9s0 .4-.4.4-.4-.3-.4-.3l.1-2s.1-.6-.7-.8-1.6 0-1.9.4-.4 1.2.3 1.3c.6.1.5-.5.4-.6s-.2-.4 0-.6c.3-.2.6-.1.8.1.2.2.1.5 0 .7-.1.1-.3.2-.3.2s-.5.3-1.1.5c-.5.2-.7.5-.7.8s.3.8.6.9.6.2.9.1.4-.1.6-.2h.3s.2.2.6.2h2.4v-.3c0-.1-.1-.1-.3-.2-.1-.1-.3-.1-.3-.5v-1.4s0-.7.7-.7c0 0 .4 0 .4.5v1.9s0 .1-.1.2-.3.2-.3.2v.2H81v-.2c.1 0 .2-.1 0-.2zm-5.1-.5c-.3.3-.7.5-.9.3-.3-.2-.3-.5-.1-.7.1-.2 1.2-.5 1.3-.8 0 .1 0 .8-.3 1.2zM57.2 9.6c0-4.4 3.6-8 8-8s8 3.6 8 8c0 1.6-.5 3.1-1.4 4.5l.3.2c.9-1.4 1.4-3 1.4-4.6 0-4.6-3.7-8.4-8.4-8.4S56.9 5 56.9 9.6c0 4.2 3.1 7.7 7.2 8.3v-.3c-3.9-.6-6.9-4-6.9-8zm23.9 4.6c-.3 0-.6.3-.6.6s.3.6.6.6.6-.3.6-.6c0-.4-.3-.6-.6-.6zm0 1.1c-.3 0-.5-.2-.5-.5s.2-.5.5-.5.5.2.5.5-.2.5-.5.5zm17.6-5.4c.3-1 1-2.4 1.7-3.2 1.1.8.7 2.8 1.9 3.4.8.4 2.7.2 3.5.5-.6 1.1-2.8 1.4-2.8 2.8 0 .6.5 1.5.7 2.1.2.7.3 1.4.6 2-.9-.6-2.7-2.3-3.8-2.1-1 .2-2.2 1.4-3.2 1.7-.5-1.2.9-2.6.5-3.8-.4-1.1-2.4-1.7-3-2.7.6-.1 4 .1 4-.2"/><path d="M99.2 10.1c.4-1.1.9-2.1 1.6-3.1-.3 0-.6.1-.8.1.9.9.7 2.4 1.6 3.2 1.2.9 2.7.5 4 .8-.1-.3-.2-.5-.3-.8-.6.9-2.6 1.2-2.8 2.5-.3 1.4.6 3.4 1.1 4.7.3-.2.5-.4.8-.6-1.1-.8-2.2-1.7-3.5-2.1-1.4-.4-2.9 1.2-4 1.7.3.1.5.2.8.3-.2-1.2 1.1-2.7.4-3.9-.7-1.3-2.2-1.7-3-2.8-.1.3-.2.6-.4.9 1.2-.1 3.3.4 4.3-.4.5-.4-.2-1.2-.7-.7-.5.4-2.8 0-3.6 0-.5.1-.7.5-.4.9.7.8 1.6 1.3 2.4 2s-.2 3.2 0 4.3c.1.4.5.4.8.3 1.1-.5 2.5-2 4-1.4.9.4 1.7 1.2 2.5 1.8.4.2.9-.2.8-.6-.4-1.1-1.7-3.9-.5-4.8.8-.5 1.5-.8 2-1.6.2-.3 0-.7-.3-.8-1.2-.2-3.1.2-3.9-.9-.6-.9-.5-2-1.3-2.8-.3-.3-.6-.2-.8.1-.8 1-1.3 2.1-1.7 3.3-.4.7.7 1 .9.4zm13.6.1c.6-1.2 1.1-2.4 1.8-3.6-.3 0-.6.1-.8.1 1 .9 1 2.5 1.4 3.7.1.2.3.4.5.4 1.3 0 2.7 0 4 .2-.1-.3-.2-.7-.3-1-.9.7-2.7 1.4-3.1 2.7-.5 1.6.4 3.4 1 4.9.3-.2.5-.4.8-.6-1-.7-2.6-2.2-3.9-2.1-1.5.1-2.7.9-3.9 1.6.3.2.5.4.8.6.3-1.2 1.3-2.8.8-4-.5-1.3-2.3-2-3.3-2.9-.1.3-.2.6-.4.9 1.3-.1 2.5-.1 3.8-.4.7-.2.4-1.2-.3-1-1.1.3-2.3.3-3.5.4-.4 0-.7.6-.4.9.8.7 1.7 1.2 2.5 1.9 1.1.9-.1 2.9-.3 3.9-.1.4.4.9.8.6 1.2-.8 2.6-1.9 4.2-1.2.9.4 1.8 1.1 2.6 1.7.4.2.9-.2.8-.6-.3-.9-.7-1.8-1-2.7-.6-2 1.3-2.7 2.6-3.7.4-.3.3-.9-.3-1-1.1-.1-3.5.3-3.8-.8-.3-1.2-.5-2.3-1.4-3.1-.2-.2-.7-.2-.8.1-.7 1.2-1.2 2.4-1.8 3.6-.3.6.6 1.1.9.5z"/><path fill="#FFF" d="M83.4 32.5c1.4 1 2.4 2.5 3.7 3.6.3.3.8.3 1.1 0 .7-.7 1.5-1.4 2.2-2.1.5-.5 1.3-1.1 1.6-1.7.4-.9-.9-1.6-1.3-.8-.3.6-1.1 1.2-1.6 1.6-.6.6-1.3 1.2-1.9 1.9h1.1c-1.4-1.2-2.5-2.7-4-3.9-.9-.5-1.7.8-.9 1.4zm-59.1-3.4c-7.4.1-14.8.1-22.2.1-.7 0-1.2.5-1.2 1.2 0 3.5 0 6.3 2.3 9.1s6.4 2.4 9.6 2.4c3.1 0 6.9.5 9.5-1.6 3.1-2.6 3-5.9 3-9.6 0-1.5-2.4-1.5-2.4 0 0 2.6.4 5.1-1.5 7.2-1.8 2-5.3 1.5-7.7 1.5-2.2 0-4.5.2-6.6-.3-4.1-1-3.8-5.6-3.8-8.7l-1.2 1.2c7.4.1 14.8 0 22.2-.1 1.6 0 1.6-2.4 0-2.4z"/><path fill="#FFF" d="M9.9 30c0-2.8-.2-6.2 3.6-6.4 3.8-.2 3.6 3.9 3.6 6.4 0 1.5 2.4 1.5 2.4 0s.1-3-.2-4.5c-.5-2.3-3-4.2-5.3-4.3-2.6-.1-5 1.2-6.1 3.6-.7 1.6-.5 3.5-.5 5.2.1 1.5 2.5 1.5 2.5 0zm44.3 1c-.3-2.6-4.7-4.3-10.4-4.3 5.1.1 9.1 1.8 9.4 4.4.3 2.6-3.1 5.2-8 6.6 5.5-1.4 9.3-4.1 9-6.7zm-25.7 3.2c-.3-2.6 3.1-5.2 8-6.6-5.5 1.4-9.4 4.1-9 6.7.3 2.6 4.7 4.3 10.4 4.3-5.1-.1-9-1.8-9.4-4.4z"/><path fill="#FFF" d="M45.2 29v.1s.1 0 0-.1zm-9.1.7c.3-.8 1.1-1.3 1.5-1.5-4.8 1.1-8.2 3.6-7.9 5.9.3 2.7 5.6 4.3 11.7 3.6 0 0-2.1-5.4-2.9-7.4-.9-2.1-2.4-.6-2.4-.6z"/><path fill="#FFF" d="M52.1 31.3c-.3-2.7-5.6-4.3-11.8-3.6-.9.1-1.7.3-2.5.4.4-.1.8 0 1.6 1 .9 1.2 1.9 4 1.9 4s.4-1.5.8-2.4 1.4-1.4 2.3-1.1c.9.3 1.4 1.5 1.4 1.5s-.5-.6-1.4-.6c-.9.1-1.4.9-1.7 2.2s-.3 4.3-.3 4.3l-1.1.4h.1c6.3-.5 11-3.4 10.7-6.1zm-6.8-1.5c-.3 0-.6-.3-.6-.6s.3-.6.6-.6.6.3.6.6-.3.6-.6.6z"/><path fill="#FFF" d="M45.3 28.7c-.3 0-.5.2-.5.5s.2.5.5.5.5-.2.5-.5-.3-.5-.5-.5zm0 .8l-.1-.2.1.2H45v-.6h.4s.2 0 .2.2-.1.2-.1.2l.1.3h-.3v-.1z"/><path opacity=".7" fill="#333" d="M37.6 28.2c.1 0 .1 0 0 0z"/><path fill="#FFF" d="M66.3 28.6v-.2c-.1.1-.2.1-.3.2-.9.5-1.8.8-2.4.8s-.9-.3-1-.5-.2-.7.4-1.5c.4-.5 1-1 1.7-1.4.6-.3 1.2-.6 1.8-.7l-.1-.2c0-.2-.3-.4-.4-.6 0 .4-.3.8-.3.8l-.1.1h-.1c-.1 0-.2-.1-.4-.2 0 .3-.1.5-.1.5l-.1.1h-.1c-.1-.1-.3-.2-.4-.2 0 .2-.1.4-.1.5v.1h-.1c-.3-.1-.6-.2-.7-.3 0 .4.1.8.1.8v.1h-.4c-.3 0-.5-.1-.7-.1.1.3.3.5.3.5l.2.1-.2.1c-.5.2-.9.3-1.1.4h.4l.4.1-.5.2c-.2.1-.5.3-.6.4.4 0 .7.1.7.1l.2.1-.2.1c-.2.2-.4.4-.5.6.4-.1.8 0 .8 0h.2l-.2.2c-.1.1-.2.3-.2.4.4-.3 1-.4 1-.4h.2v.6c.3-.3.7-.5.7-.6l.2-.1v.2c0 .1 0 .2.1.3.2-.3.6-.7.6-.7l.1-.1v.2c0 .2.1.4.1.6.2-.3.4-.7.4-.7v-.1h.1c.2.1.3.1.4.2.2-.4.2-.8.2-.8z"/><path fill="#FFF" d="M68 25.8c.4.8-.5 1.8-1.7 2.6l.2.1c.1.1.2.2.4.3l.2-.6v-.1h.1c.1 0 .2.1.3.1v-.6h.8c-.3-.1-.3-.3-.3-.3l-.1-.2h1c-.3-.2-.4-.5-.4-.5l-.1-.1h.1c.2 0 .3-.1.4-.2h-.2l-.3-.1.3-.1c.1-.1.4-.3.6-.5-.5.1-.9.2-.9.2l-.2.1.1-.2c0-.1.2-.5.3-.7-.3.2-.5.4-.6.4l-.2.2v-.3c0-.2.1-.4.2-.6-.5.3-1 .7-1 .7v-.1l-.1-.1c-.1-.1-.1-.3-.1-.4-.3.2-.3.4-.3.4l-.1.2c.2 0 .4-.1.6-.1.6 0 .9.2 1 .5zm13.1 9.4c-.3 0-.5.2-.5.5s.2.5.5.5.5-.2.5-.5-.2-.5-.5-.5zm.2.9v-.2c0-.1 0-.1-.1-.1H81v.3h-.1v-.7h.3c.1 0 .2.1.2.2s0 .1-.1.2c.1 0 .1.1.1.1l-.1.2z"/><path fill="#FFF" d="M81.2 35.5H81v.2h.2c.1 0 .2 0 .2-.1-.1 0-.2-.1-.2-.1zm-18.3-8.1c-.6.8-.5 1.2-.4 1.5.1.2.4.5 1 .5.7 0 1.6-.3 2.4-.8.1-.1.2-.1.3-.2 1.2-.8 2.1-1.9 1.7-2.6-.1-.2-.4-.5-1-.5-.2 0-.4 0-.6.1l-.1.1v-.1c-.5.1-1.2.4-1.8.7-.5.4-1.1.9-1.5 1.3zm4.8-1.5c.3.5-.6 1.6-1.9 2.4s-2.7 1-3 .4c-.3-.5.6-1.6 1.9-2.4 1.4-.7 2.7-.9 3-.4zm-1.3 3.7v-.1c0-.1 0-.2.1-.3V29l-.2.3-.1-.1v.2c.1 0 .1.1.1.1l.1.1z"/><path fill="#FFF" d="M69.6 32.1c-.2.1-.4.2-1.1.3-.7 0-1.3.3-1.6.7-.3.5-.2 1.2-.1 1.7 0 0 .3-1 .7-1.4.4-.3 1.1-.3 1.1-.3s-1.8 1.7-2.5 3.2c0 0-.4.9-.5 1l-.1.1s0-.9-.1-1.3-.2-1.5-.2-2c.1-.5.4-1.4.6-2s.5-1.3.5-2.4v-.9l.3.3.2.3V29c0-.2.1-.5.2-.7.2.1.2.3.2.3l.2.5.1-.6v-.6h1.1l-.2-.2c-.1-.1-.2-.3-.3-.4h.1c.4 0 .8-.1.8-.1l.3-.1-.3-.2c-.2-.1-.4-.3-.5-.5.4-.2.8-.5.8-.5l.5-.5-.7.3c-.1 0-.2.1-.2.1.2-.2.5-.5.5-.6l.2-.2h-.3c-.4 0-.8.1-1 .2.1-.3.3-.8.3-.8l.2-.3-.3.2c-.2.1-.5.3-.6.4.1-.3.3-.6.3-.6l.2-.4-.4.2c-.5.2-1 .6-1.2.8v-.6l-.2.1c-.2.2-.4.3-.5.5-.2-.3-.6-.6-.6-.6V24l.1.3c.1.3-.1.7-.2.9-.2-.1-.5-.3-.5-.3l-.3-.2.1.4c.1.2 0 .4 0 .5-.2-.1-.3-.3-.3-.3l-.1-.2-.1.2c0 .1-.1.4-.1.6-.4-.1-.7-.3-.7-.3l-.2-.1v.2c0 .4 0 .7.1.9h-.1c-.4 0-.8-.2-.8-.2l-.2-.1v.2c.1.3.2.6.3.7-1 .3-1.4.6-1.4.6l-.4.2h.9c-.3.2-.6.5-.6.5l-.2.2h1c-.3.3-.5.7-.5.7l-.1.3.3-.1c.2-.1.5-.1.7-.1-.2.3-.2.7-.2.7l-.1.4.3-.2c.3-.3.8-.4 1-.5v.6l.1.3.2-.3c.2-.3.5-.5.7-.6.1.2.2.4.2.5l.2.4.1-.5c0-.2.3-.5.5-.7v.9l.2-.2c.3-.2.5-.7.6-.9.1.1.3.1.3.2v.9c0 .5-.3 1.1-.5 1.7-.3.6-.6 1.6-.6 2.2 0 .6.1 2.7.1 2.7h-.1s-1.1-3.8-4-4.6c0 0 3.7 3.1 3.7 7.5h1.3s-.1-3 1.7-4.9c0 0 .8.3 1.4-.4.6-.6.4-1.3.5-1.7s.7-1.3.7-1.3-.6.3-.9.4zm-3.8-3l-.1.1s-.2.4-.4.7c0-.2 0-.4-.1-.6v-.2l-.1.1c-.1 0-.4.4-.6.7 0-.1-.1-.2-.1-.3v-.2l-.2.1s-.4.2-.7.6v-.6h-.2s-.6.1-1 .4c0-.1.1-.3.2-.4l.2-.2h-1c.1-.2.3-.4.5-.6l.2-.1H62s-.3-.1-.7-.1c.1-.1.4-.3.6-.4l.3-.2-.4-.1h-.4c.2-.1.6-.3 1.1-.4l.2-.1-.2-.1s-.2-.2-.3-.5c.2.1.4.1.7.1h.4v-.1s-.1-.4-.1-.8c.2.1.4.2.7.3h.1v-.1c0-.1 0-.3.1-.5.1.1.2.2.4.2h.1l.1-.1s.1-.2.1-.5c.1.1.3.2.4.2h.1l.1-.1s.3-.4.3-.8c.2.2.4.4.4.6l.1.2h.1l.1-.2s.1-.2.3-.4c0 .2 0 .4.1.4l.1.1.1-.1s.5-.4 1-.7c-.1.2-.2.4-.2.6v.3l.2-.2.6-.4c-.1.2-.2.6-.3.7l-.1.2.2-.1s.4-.1.9-.2c-.2.2-.4.4-.6.5l-.3.1.3.1h.2c-.1.1-.3.2-.4.2h-.1l.1.1s.1.3.4.5h-1l.1.2s.1.2.3.5h-.8v.6c-.1-.1-.2-.1-.3-.1h-.1v.1l-.2.6c-.1-.1-.2-.2-.4-.3l-.2-.1v.2s0 .4-.1.7c-.1 0-.2-.1-.4-.1z"/><path fill="#FFF" d="M66.4 25.4s-.1 0 0 0l-.1.1.1-.1z"/><path fill="#FFF" d="M66.4 25.4s-.1 0 0 0l-.1.1.1-.1zm-.1 3zm0 0zm2.1 7.5c-1.7 0-1.7 1.9-1.7 2.2s.2 1.3 1.1 1.8c.9.4 1.4 0 1.7-.3s.4-.5.4-.6-.1-.3-.2-.2-.6.5-.9.6-.6 0-.7-.1-.3-.4-.3-.6c0-.2-.1-.5-.1-.5H70c-.1-.1.1-2.3-1.6-2.3zm.6 1.6h-1.2s-.1-1.1.6-1.1.6 1.1.6 1.1zm4.3 1.8s-.2 0-.2-.2.1-.2.2-.3.7-.5.7-1.2-.8-1.3-.8-1.3-.1-.1-.1-.2.2-.2.3-.2.3.1.3.1.3.2.5.2.6-.1.7-.8c0 0-.3.3-.7.2s-.7-.2-.9-.1c-.3.1-.4.4-.4.5 0 0-.6-.2-1-.1s-1.2.2-1.6.9-.1 1.6.1 1.8.7.5 1.1.6 1.2.4 1.4.8c.2.4-.1 1-.5 1.2s-1.1.4-1.5-.2 0-.9.1-.9c.1-.1.3 0 .4.1s.4.4.7.1c.2-.3.2-.8-.4-.9-.5-.2-1-.1-1.3.2s-.6 1.1-.2 1.8 1.2.8 1.8.8c.6 0 1.1-.3 1.5-.8s.6-1 .3-1.5c-.1-.5-.5-.6-.5-.6zm-.8-1.1c0 .3-.3.6-.6.6s-.6-.3-.6-.6v-1.1c0-.3.3-.6.6-.6s.6.3.6.6v1.1z"/><path fill="#FFF" d="M81 39.5c-.2-.1-.3-.1-.3-.4s.1-1.9.1-1.9.1-.6-.3-.9c-.3-.3-.8-.4-1.1-.3s-.6.4-.6.4v-.2s0-.3-.3-.3-.8.3-1 .4-.2.4 0 .5c.3.2.2.1.2.2v1.9s0 .4-.4.4-.4-.3-.4-.3l.1-2s.1-.6-.7-.8c-.7-.2-1.6 0-1.9.4s-.4 1.2.3 1.3c.6.1.5-.5.4-.6s-.2-.4 0-.6c.3-.2.6-.1.8.1.2.2.1.5 0 .7-.1.1-.3.2-.3.2s-.5.3-1.1.5c-.5.2-.7.5-.7.8s.3.8.6.9c.3.1.6.2.9.1s.4-.1.6-.2.3 0 .3 0c.1.1.2.2.6.2h2.4v-.3c0-.1-.1-.1-.3-.2-.1-.1-.3-.1-.3-.5v-1.4s0-.7.7-.7c0 0 .4 0 .4.5v1.9s0 .1-.1.2-.3.2-.3.2v.2H81v-.2c.1 0 .2-.1 0-.2zm-5.1-.5c-.3.3-.7.5-.9.3-.3-.2-.3-.5-.1-.7.1-.2 1.2-.5 1.3-.8 0 .1 0 .8-.3 1.2zm-18.7-8.4c0-4.4 3.6-8 8-8s8 3.6 8 8c0 1.6-.5 3.1-1.4 4.5l.3.2c.9-1.4 1.4-3 1.4-4.6 0-4.6-3.7-8.4-8.4-8.4s-8.4 3.7-8.4 8.4c0 4.2 3.1 7.7 7.2 8.3v-.3c-3.7-.7-6.7-4.1-6.7-8.1zm23.9 4.6c-.3 0-.6.3-.6.6s.3.6.6.6.6-.3.6-.6c0-.4-.3-.6-.6-.6zm0 1.1c-.3 0-.5-.2-.5-.5s.2-.5.5-.5.5.2.5.5-.2.5-.5.5zm17.6-5.4c.3-1 1-2.4 1.7-3.2 1.1.8.7 2.8 1.9 3.4.8.4 2.7.2 3.5.5-.6 1.1-2.8 1.4-2.8 2.8 0 .6.5 1.5.7 2.1.2.7.3 1.4.6 2-.9-.6-2.7-2.3-3.8-2.1-1 .2-2.2 1.4-3.2 1.7-.5-1.2.9-2.6.5-3.8-.4-1.1-2.4-1.7-3-2.7.6-.1 4 0 4-.2"/><path fill="#FFF" d="M99.2 31.1c.4-1.1.9-2.1 1.6-3.1-.3 0-.6.1-.8.1.9.9.7 2.4 1.6 3.2 1.2.9 2.7.5 4 .8-.1-.3-.2-.5-.3-.8-.6.9-2.6 1.2-2.8 2.5-.3 1.5.6 3.4 1.1 4.7.3-.2.5-.4.8-.6-1.1-.8-2.2-1.7-3.5-2.1-1.4-.4-2.9 1.2-4 1.7.3.1.5.2.8.3-.2-1.2 1.1-2.7.4-3.9-.7-1.3-2.2-1.7-3-2.8-.1.3-.2.6-.4.9 1.2-.1 3.3.4 4.3-.4.5-.4-.2-1.2-.7-.7-.5.4-2.8 0-3.6 0-.5 0-.7.5-.4.9.7.8 1.6 1.3 2.4 2s-.2 3.2 0 4.3c.1.4.5.4.8.3 1.1-.5 2.5-2 4-1.4.9.4 1.7 1.2 2.5 1.8.4.2.9-.2.8-.6-.4-1.1-1.7-3.9-.5-4.8.8-.5 1.5-.8 2-1.6.2-.3 0-.7-.3-.8-1.2-.2-3.1.2-3.9-.9-.6-.9-.5-2-1.3-2.8-.3-.3-.6-.2-.8.1-.8 1-1.3 2.1-1.7 3.3-.4.7.7 1 .9.4zm13.6.1c.6-1.2 1.1-2.4 1.8-3.6-.3 0-.6.1-.8.1 1 .9 1 2.5 1.4 3.7.1.2.3.4.5.4 1.3 0 2.7 0 4 .2-.1-.3-.2-.7-.3-1-.9.7-2.7 1.4-3.1 2.7-.5 1.6.4 3.4 1 4.9.3-.2.5-.4.8-.6-1-.7-2.6-2.2-3.9-2.1-1.5.1-2.7.9-3.9 1.6.3.2.5.4.8.6.3-1.2 1.3-2.8.8-4-.5-1.3-2.3-2-3.3-2.9-.1.3-.2.6-.4.9 1.3-.1 2.5-.1 3.8-.4.7-.2.4-1.2-.3-1-1.1.3-2.3.3-3.5.4-.4 0-.7.6-.4.9.8.7 1.7 1.2 2.5 1.9 1.1.9-.1 2.9-.3 3.9-.1.4.4.8.8.6 1.2-.8 2.6-1.9 4.2-1.2.9.4 1.8 1.1 2.6 1.7.4.2.9-.2.8-.6-.3-.9-.7-1.8-1-2.7-.6-2 1.3-2.7 2.6-3.7.4-.3.3-.9-.3-1-1.1-.1-3.5.3-3.8-.8-.3-1.2-.5-2.3-1.4-3.1-.2-.2-.7-.2-.8.1-.7 1.2-1.2 2.4-1.8 3.6-.3.6.6 1.1.9.5z"/><path d="M132.1 15H131l-2.5-7.1h1l2 6.1 2-6.1h1l-2.4 7.1zm6.9-1.6c-.2 1.1-1 1.7-2.2 1.7-1.6 0-2.4-1.1-2.5-2.7 0-1.5 1-2.7 2.4-2.7 1.8 0 2.4 1.7 2.3 2.9h-3.8c0 .9.5 1.7 1.6 1.7.7 0 1.2-.3 1.3-1l.9.1zm-.8-1.4c0-.8-.6-1.4-1.5-1.4s-1.4.7-1.5 1.4h3zm6.1 2.7c0 1.7-.7 2.4-2.3 2.4-1 0-2.1-.4-2.1-1.5h.8c0 .6.8.8 1.3.8 1.1 0 1.5-.8 1.5-1.9v-.3c-.3.6-1 .9-1.6.9-1.5 0-2.3-1.2-2.3-2.6 0-1.2.6-2.7 2.4-2.7.6 0 1.2.3 1.5.9v-.8h.8v4.8zm-.7-2.3c0-.9-.4-1.8-1.5-1.8s-1.5.9-1.5 1.9c0 .9.3 2 1.4 2 1.2-.2 1.6-1.2 1.6-2.1zm6.7 2.6c-.1.1-.3.1-.6.1-.4 0-.7-.2-.7-.8-.5.5-1.1.8-1.8.8-.9 0-1.7-.4-1.7-1.4 0-1.2.9-1.4 1.7-1.6.9-.2 1.7-.1 1.7-.8s-.6-.9-1.1-.9c-.7 0-1.2.2-1.3 1h-.8c0-1.3 1-1.7 2.2-1.7.9 0 1.9.2 1.9 1.4v2.6c0 .4 0 .6.3.6h.3l-.1.7zm-1.4-2.6c-.3.2-1 .2-1.5.3-.6.1-1 .3-1 .9 0 .6.5.8 1 .8 1.1 0 1.6-.7 1.6-1.2v-.8h-.1zm2.1-2.5h.8v.8c.4-.6.9-.9 1.7-.9 1.4 0 1.8.8 1.8 1.9V15h-.8v-3.5c0-.6-.4-1-1-1-1 0-1.5.7-1.5 1.6V15h-1V9.9z"/><path d="M132.1 35H131l-2.5-7.1h1l2 6.1 2-6.1h1l-2.4 7.1zm6.9-1.6c-.2 1.1-1 1.7-2.2 1.7-1.6 0-2.4-1.1-2.5-2.7 0-1.5 1-2.7 2.4-2.7 1.8 0 2.4 1.7 2.3 2.9h-3.8c0 .9.5 1.7 1.6 1.7.7 0 1.2-.3 1.3-1l.9.1zm-.8-1.4c0-.8-.6-1.4-1.5-1.4s-1.4.7-1.5 1.4h3zm6.1 2.7c0 1.7-.7 2.4-2.3 2.4-1 0-2.1-.4-2.1-1.5h.8c0 .6.8.8 1.3.8 1.1 0 1.5-.8 1.5-1.9v-.3c-.3.6-1 .9-1.6.9-1.5 0-2.3-1.2-2.3-2.6 0-1.2.6-2.7 2.4-2.7.6 0 1.2.3 1.5.9V30h.8v4.7zm-.7-2.3c0-.9-.4-1.8-1.5-1.8s-1.5.9-1.5 1.9c0 .9.3 2 1.4 2 1.2-.2 1.6-1.2 1.6-2.1zm6.7 2.6c-.1.1-.3.1-.6.1-.4 0-.7-.2-.7-.8-.5.5-1.1.8-1.8.8-.9 0-1.7-.4-1.7-1.4 0-1.2.9-1.4 1.7-1.6.9-.2 1.7-.1 1.7-.8 0-.7-.6-.9-1.1-.9-.7 0-1.2.2-1.3 1h-.8c0-1.3 1-1.7 2.2-1.7.9 0 1.9.2 1.9 1.4v2.6c0 .4 0 .6.3.6h.3l-.1.7zm-1.4-2.6c-.3.2-1 .2-1.5.3-.6.1-1 .3-1 .9 0 .6.5.8 1 .8 1.1 0 1.6-.7 1.6-1.2v-.8h-.1zm2.1-2.5h.8v.8c.4-.6.9-.9 1.7-.9 1.4 0 1.8.8 1.8 1.9V35h-.8v-3.5c0-.6-.4-1-1-1-1 0-1.5.7-1.5 1.6V35h-1v-5.1zm14.3-.6l-1.4-.7.3-.3c.4.2.7.4 1.1.6-.1-.4-.3-.8-.4-1.2l.3-.2.4 1.5-.3.3zm1.1-1.6c-.1-.1-.1-.3.1-.4.1-.1.3 0 .3.1l-.4.3zm.8-.3c-.1-.3-.4-.4-.7-.2-.3.2-.4.5-.3.8.2.3.5.3.8.1.1-.1.2-.2.4-.3l-.2-.1c0 .1-.1.2-.2.2-.2.1-.4.1-.5-.1l.7-.4zm1-1c.2-.1.3 0 .4.2.1.2.1.4-.1.5-.2.1-.3-.1-.4-.2-.1-.2-.1-.4.1-.5m.5-.4l-.3.1.1.1c-.1-.1-.3 0-.4 0-.3.1-.4.5-.3.7.1.3.4.4.7.3.2-.1.2-.2.3-.3l.1.1c.1.2 0 .4-.2.5s-.3.1-.4.1v.2c.2 0 .3-.1.5-.1.3-.2.6-.4.4-.8l-.5-.9zm1.2-.1c-.1-.1 0-.3.2-.3.2-.1.3 0 .3.2l-.5.1zm.8-.1c-.1-.3-.3-.5-.7-.3-.3.1-.5.4-.4.7.1.3.5.4.8.3.1 0 .3-.1.4-.3l-.1-.1c-.1.1-.2.2-.3.2-.2.1-.4 0-.5-.2l.8-.3zm.9-.9l.3-.1v.1l-.3.1.1.5c.1.2.1.2.2.2s.1 0 .1-.1l.1.1c-.1.1-.2.1-.3.2-.3.1-.4 0-.5-.2l-.2-.6-.2.1v-.1h.2l-.1-.2.3-.2.3.2zm1.8 0c.1.3 0 .5-.2.5-.1 0-.2 0-.2-.1s0-.2.2-.3l.2-.1zm.1.4c0 .1 0 .1.1.1l.3-.1c-.1-.1-.1-.1-.1-.2l-.1-.4c-.1-.3-.4-.3-.6-.2-.2 0-.3.1-.4.2l.1.1c.1-.1.2-.1.3-.2.1 0 .2 0 .3.1l-.3.1c-.3.1-.4.3-.3.5 0 .2.2.3.4.2.1.1.2 0 .3-.2zm1.3-1c.1-.1.1-.2.2-.3h.2l-.1.2c-.1 0-.1 0-.3.1 0-.1-.1 0-.1.2l.1.5-.3.1-.2-1 .3-.1.2.3zm1.4-.4l.2 1-.3.1-.2-1 .3-.1zm-.4-.3c0-.1.1-.2.2-.2s.2 0 .2.1 0 .2-.2.2c-.1.1-.2 0-.2-.1m2 .5c.1.3-.1.4-.2.5-.1 0-.2 0-.2-.1s.1-.2.2-.3l.2-.1zm0 .4v.1h.3c0-.1-.1-.2-.1-.2l-.1-.4c0-.3-.3-.3-.5-.3s-.3.1-.4.2l.1.1c.1-.1.2-.1.3-.1s.2 0 .2.1l-.3.1c-.3.1-.4.2-.4.4s.2.3.4.3c.3-.1.4-.1.5-.3zm1.4-.8c.1-.1.3-.2.4-.2.3 0 .4.1.5.4v.7h-.3V24c0-.1-.1-.2-.3-.2s-.3.1-.3.3v.6h-.3l-.1-1h.4zm3.8-.4c-.1 0-.2-.1-.3-.1s-.2.1-.2.1c0 .1.1.2.3.3.2.2.3.3.3.5s-.2.4-.6.4c-.2 0-.4-.1-.5-.2l.1-.2c.1.1.2.1.3.1s.3-.1.3-.2c0-.2-.2-.3-.4-.4s-.3-.2-.3-.4.2-.3.5-.3c.2 0 .4.1.4.1l.1.3zm1.5 1.1c-.2 0-.3-.2-.3-.4s.1-.4.3-.3c.2 0 .3.2.3.4 0 .1 0 .3-.3.3m0 .2c.4 0 .7-.2.7-.5s-.3-.5-.6-.6c-.3 0-.7.1-.7.5 0 .3.2.5.6.6m2.3.2h-.4c-.5-.1-.6-.4-.6-.6 0-.3.3-.5.8-.4.1 0 .2.1.3.1l-.1.1c-.1 0-.1-.1-.2-.1-.2 0-.4 0-.4.3 0 .2.1.4.3.4h.2l.1.2zm1.2-.8l-.2 1-.3-.1.2-1 .3.1zm-.3-.4c0-.1.1-.1.2-.1s.2.1.2.2-.1.2-.2.1c-.1 0-.2-.1-.2-.2m1.3 1.1c0-.1.1-.2.3-.2s.2.2.1.3l-.4-.1zm.7.3c.1-.3 0-.6-.3-.7s-.7 0-.7.3c-.1.3.1.6.5.7.1 0 .3.1.5 0V25c-.1.1-.2.1-.3.1-.2-.1-.3-.2-.3-.4l.6.3zm1.3-.1l.3.1-.1.1-.3-.1-.2.5c-.1.2 0 .2.1.3h.2v.1c-.1 0-.2 0-.3-.1-.3-.1-.3-.3-.2-.4l.2-.5-.2-.1.1-.1.2.1.1-.2.3.1-.2.2zm1.2.6c0 .3-.1.5-.1.8.2-.2.5-.3.7-.5l.2.2-1.1.7c-.1.1-.4.2-.7.1l-.1-.1.1-.2h.1c.1.1.3.1.5-.1l.1-1 .3.1zM165 37c.2-.2.4-.3.6-.5-.1.3-.1.5-.1.8l-.5-.3zm.7-1.1l-2 1.2.6.3.5-.3.8.4v.5l.8.4v-2.3l-.7-.2zm3.6 2.4c.1 0 .4 0 .5-.2 0-.2-.1-.3-.3-.3l-.2-.1-.4 1.6-.8-.2.5-2 1.1.3c.7.2 1.1.5 1 .8s-.6.6-1.3.4h-.2l.1-.3zm3.7.6c.1 0 .4-.1.4-.3s-.2-.3-.4-.3h-.2l-.1 1.6-.9-.1.2-2 1.2.1c.7.1 1.1.3 1.1.7 0 .3-.5.7-1.2.6h-.2v-.4l.1.1zm3.4-.4h.2c.2 0 .4 0 .4.2 0 .1-.1.3-.3.3h-.2l-.1-.5zm-.8 1.6h.9v-.8h.2l.5.8.9-.1-.7-.9c.3-.1.5-.3.5-.6s-.4-.5-1-.5h-1.3v2.1zm5.3-.7c-.4.1-.6-.2-.6-.6 0-.4.1-.6.4-.7.4-.1.5.2.6.5 0 .4-.1.7-.4.8m0 .4c.9-.1 1.3-.7 1.3-1.3-.1-.6-.7-.9-1.5-.8-.8.1-1.3.6-1.3 1.2s.6 1 1.5.9m3.8-.8l-1.5-1.7.9-.3c.3.4.6.8 1 1.3.1-.6.2-1.1.3-1.6l.7-.1-.6 2.2-.8.2zm4.3-3.1l-.8.3.1.4.8-.4.1.4-.7.3.1.5 1-.4.2.3-1.8.8-.8-1.9 1.6-.7zm2.1-1.2l.2-.1c.3-.2.7-.2.9.1s.2.7-.2 1l-.2.1-.7-1.1zm-.9.2l1.1 1.7.9-.6c.7-.5 1.2-1.2.8-1.8-.3-.4-.9-.6-1.8.1l-1 .6zm-16.9-8.3s-7.3 2.7-6.7 6.2c.6 3 6.8 4.1 6.8 4.1s-7.5-.8-8-4.3c-.6-3.7 7.9-6 7.9-6m9.7-1.3s7.1.5 8 4c1.1 4.3-8 7-8 7s10.5-2.4 9.3-7.1c-1.1-3.8-9.3-3.9-9.3-3.9" fill="#FFF"/><path fill="#FFF" d="M179.3 36.2c-.2-.4-.4-.9-.5-1.1-.2-.4-.7-2-1.2-3.3-.3-.8-.5-1.3-.9-2.1-.3-.6-.5-1.2-.8-1.6-.2-.3-.5-.4-.9-.4-.2 0-.5.1-.7.2-.1.1-.3.2-.3.3-.1.1.1-.3.2-.4.2-.2.2-.3.4-.5.3-.3.7-.5 1-.6l-.6.2c-3.2 1.1-6 2.9-7 4.6-1.6 2.6 2.8 5.4 11.3 4.7"/><g fill="#FFF"><path d="M183.1 27.4v.1h.1c0 .1 0 0-.1-.1.1.1 0 0 0 0z"/><path d="M190 29.9c-.3-2.8-5.6-4.5-11.8-3.7-.4.1-2.2.3-2.7.4.2 0 .7-.1 1.2.5.2.2.3.4.5.6.2.3.4.5.6.9.4.7.8 1.6.8 1.8.2.5.3.8.5 1.3.1-.3.1-.4.2-.7.2-.6.4-1.1.6-1.5.2-.4.4-.7.7-1s.5-.3.9-.4c.4 0 .7.1 1 .3.3.2.5.5.7.7s.3.4.5.6c.1.2-.3-.2-.5-.3-.3-.1-.5-.2-.8-.3-.3 0-.5 0-.7.2-.3.2-.4.3-.5.6-.4.7-.5 1.2-.6 2-.2 1.4-.2 3.2-.2 3.8l-1.1.4c6-.7 11-3.6 10.7-6.2zm-6.9-1.7c-.3 0-.6-.3-.6-.6s.3-.6.6-.6.6.3.6.6c0 .4-.3.6-.6.6z"/><path d="M183.1 27.2c-.3 0-.5.2-.5.5s.2.5.5.5.5-.2.5-.5-.2-.5-.5-.5zm.1.8l-.1-.2v.2h-.2v-.6h.3c.2 0 .3.1.3.2s0 .2-.1.2l.1.3-.3-.1z"/></g><path d="M165.3 9.3l-1.4-.7.3-.3c.4.2.7.4 1.1.6-.1-.4-.3-.8-.4-1.2l.3-.2.4 1.5-.3.3zm1.1-1.6c-.1-.1-.1-.3.1-.4.1-.1.3 0 .3.1l-.4.3zm.8-.3c-.1-.3-.4-.4-.7-.2-.3.2-.4.5-.3.8.2.3.5.3.8.1.1-.1.2-.2.4-.3l-.2-.1c0 .1-.1.2-.2.2-.2.1-.4.1-.5-.1l.7-.4zm1-1c.2-.1.3 0 .4.2.1.2.1.4-.1.5-.2.1-.3-.1-.4-.2-.1-.2-.1-.4.1-.5m.5-.4l-.3.1.1.1c-.1-.1-.3 0-.4 0-.3.1-.4.5-.3.7.1.3.4.4.7.3.2-.1.2-.2.3-.3l.1.1c.1.2 0 .4-.2.5s-.3.1-.4.1v.2c.2 0 .3-.1.5-.1.3-.2.6-.4.4-.8l-.5-.9zm1.2-.1c-.1-.1 0-.3.2-.3.2-.1.3 0 .3.2l-.5.1zm.8-.1c-.1-.3-.3-.5-.7-.3-.3.1-.5.4-.4.7.1.3.5.4.8.3.1 0 .3-.1.4-.3l-.1-.1c-.1.1-.2.2-.3.2-.2.1-.4 0-.5-.2l.8-.3zm.9-.9l.3-.1v.1h-.3l.1.6c.1.2.1.2.2.2s.1 0 .1-.1l.1.1c-.1.1-.2.1-.3.2-.3.1-.4 0-.5-.2l-.2-.6-.2.1v-.1h.2l-.1-.2.3-.2.3.2zm1.8 0c.1.3 0 .5-.2.5-.1 0-.2 0-.2-.1s0-.2.2-.3l.2-.1zm.1.4c0 .1 0 .1.1.1l.3-.1c-.1-.1-.1-.1-.1-.2l-.1-.4c-.1-.3-.4-.3-.6-.2-.2 0-.3.1-.4.2l.1.1c.1-.1.2-.1.3-.2.1 0 .2 0 .3.1l-.3.1c-.3.1-.4.3-.3.5 0 .2.2.3.4.2.1.1.2 0 .3-.2zm1.3-1c.1-.1.1-.2.2-.3h.2l-.1.2h-.2c-.1 0-.2.1-.2.3l.1.5-.3.1-.2-1 .3-.1.2.3zm1.4-.4l.2 1-.3.1-.2-1 .3-.1zm-.4-.3c0-.1.1-.2.2-.2s.2 0 .2.1 0 .2-.2.2c-.1.1-.2 0-.2-.1m2 .5c.1.3-.1.4-.2.5-.1 0-.2 0-.2-.1s.1-.2.2-.3l.2-.1zm0 .4c0 .1 0 .1 0 0l.3.1c0-.1-.1-.2-.1-.2l.1-.4c0-.3-.3-.3-.5-.3s-.3.1-.4.2l.1.1c.1-.1.2-.1.3-.1s.2 0 .2.1l-.3.1c-.3.1-.4.2-.4.4s.2.3.4.3c.1-.1.2-.1.3-.3zm1.4-.8c.1-.1.3-.2.4-.2.3 0 .4.1.5.4v.7h-.3V4c0-.1-.1-.2-.3-.2s-.3.1-.3.3v.6h-.3l-.1-1h.4zm3.8-.4c-.1 0-.2-.1-.3-.1s-.2.1-.2.1c0 .1.1.2.3.3.2.2.3.3.3.5s-.2.4-.6.4c-.2 0-.4-.1-.5-.2l.1-.2c.1.1.2.1.3.1s.3-.1.3-.2c0-.2-.2-.3-.4-.4-.2-.1-.3-.2-.3-.4s.2-.3.5-.3c.2 0 .4.1.4.1l.1.3zm1.5 1.1c-.2 0-.3-.2-.3-.4s.1-.4.3-.3c.2 0 .3.2.3.4 0 .1 0 .3-.3.3m0 .2c.4 0 .7-.2.7-.5s-.3-.5-.6-.6c-.3 0-.7.1-.7.5 0 .3.2.5.6.6m2.3.2h-.4c-.5-.1-.6-.4-.6-.6 0-.3.3-.5.8-.4.1 0 .2.1.3.1l-.1.1c-.1 0-.1-.1-.2-.1-.2 0-.4 0-.4.3 0 .2.1.4.3.4h.2l.1.2zM188 4l-.2 1-.3-.1.2-1 .3.1zm-.3-.4c0-.1.1-.1.2-.1s.2.1.2.2-.1.2-.2.1c-.1 0-.2-.1-.2-.2m1.3 1.1c0-.1.1-.2.3-.2s.2.2.1.3l-.4-.1zm.7.3c.1-.3 0-.6-.3-.7s-.7 0-.7.3c-.1.3.1.6.5.7.1 0 .3.1.5 0v-.2h-.3c-.4.1-.5-.1-.4-.3l.7.2zm1.3-.1l.3.1-.1.1h-.2l-.2.5c-.1.2 0 .2.1.3h.2V6c-.1 0-.2 0-.3-.1-.3-.1-.3-.3-.2-.4l.2-.5-.2-.1.1-.1.3.1v-.2l.3.1-.3.1zm1.2.6c0 .3-.1.5-.1.8.2-.2.5-.3.7-.5l.2.2-1.1.7c-.1.1-.4.2-.7.1l-.1-.1.1-.2h.1c.1.1.3.1.5-.1l.1-1 .3.1zM165 17c.2-.2.4-.3.6-.5-.1.3-.1.5-.1.8l-.5-.3zm.7-1.1l-2 1.2.6.3.5-.3.8.4v.5l.8.4v-2.3l-.7-.2zm3.6 2.4c.1 0 .4 0 .5-.2 0-.2-.1-.3-.3-.3l-.2-.1-.4 1.6-.8-.2.5-2 1.1.3c.7.2 1.1.5 1 .8s-.6.6-1.3.4h-.2l.1-.3zm3.7.6c.1 0 .4-.1.4-.3 0-.2-.2-.3-.4-.3h-.2l-.1 1.6-.9-.1.2-2 1.2.1c.7.1 1.1.3 1.1.7 0 .3-.5.7-1.2.6h-.2l.1-.3zm3.4-.4h.2c.2 0 .4 0 .4.2 0 .1-.1.3-.3.3h-.2l-.1-.5zm-.8 1.6h.9v-.8h.2l.5.8.9-.1-.7-.9c.3-.1.5-.3.5-.6s-.4-.5-1-.5h-1.3v2.1zm5.3-.7c-.4.1-.6-.2-.6-.6s.1-.6.4-.7c.4-.1.5.2.6.5 0 .4-.1.7-.4.8m0 .4c.9-.1 1.3-.7 1.3-1.3-.1-.6-.7-.9-1.5-.8s-1.3.6-1.3 1.2.6 1 1.5.9m3.8-.8l-1.5-1.7.9-.3c.3.4.6.8 1 1.3.1-.6.2-1.1.3-1.6l.7-.1-.6 2.2-.8.2zm4.3-3.1l-.8.3.1.4.8-.4.1.4-.7.3.1.5 1-.4.2.3-1.8.8-.8-1.9 1.6-.7zm2.1-1.2l.2-.1c.3-.2.7-.2.9.1s.2.7-.2 1l-.2.1-.7-1.1zm-.9.2l1.1 1.7.9-.6c.7-.5 1.2-1.2.8-1.8-.3-.4-.9-.6-1.8.1l-1 .6zm-16.9-8.3s-7.3 2.7-6.7 6.2c.6 3 6.8 4.1 6.8 4.1s-7.5-.8-8-4.3c-.6-3.7 7.9-6 7.9-6m9.7-1.3s7.1.5 8 4c1.1 4.3-8 7-8 7s10.5-2.4 9.3-7.1c-1.1-3.8-9.3-3.9-9.3-3.9"/><path d="M179.3 16.2c-.2-.4-.4-.9-.5-1.1-.2-.4-.7-2-1.2-3.3-.3-.8-.5-1.3-.9-2.1-.3-.6-.5-1.2-.8-1.6-.2-.3-.5-.4-.9-.4-.2 0-.5.1-.7.2-.1.1-.3.2-.3.3-.1.1.1-.3.2-.4.2-.2.2-.3.4-.5.3-.3.7-.5 1-.6l-.6.2c-3.2 1.1-6 2.9-7 4.6-1.6 2.6 2.8 5.4 11.3 4.7m3.8-8.8l.1.1c0 .1 0 0-.1-.1.1.1 0 0 0 0z"/><path d="M190 9.9c-.3-2.8-5.6-4.5-11.8-3.7-.4.1-2.2.3-2.7.4.2 0 .7-.1 1.2.5.2.2.3.4.5.6.2.3.4.5.6.9.4.7.8 1.6.8 1.8.2.5.3.8.5 1.3.1-.3.1-.4.2-.7.2-.6.4-1.1.6-1.5.2-.4.4-.7.7-1s.5-.3.9-.4c.4 0 .7.1 1 .3s.5.5.7.7.3.4.5.6c.1.2-.3-.2-.5-.3-.3-.1-.5-.2-.8-.3-.3 0-.5 0-.7.2-.3.2-.4.3-.5.6-.4.7-.5 1.2-.6 2-.2 1.4-.2 3.2-.2 3.8l-1.1.4c6-.7 11-3.6 10.7-6.2zm-6.9-1.7c-.3 0-.6-.3-.6-.6s.3-.6.6-.6.6.3.6.6c0 .4-.3.6-.6.6z"/><path d="M183.1 7.2c-.3 0-.5.2-.5.5s.2.5.5.5.5-.2.5-.5-.2-.5-.5-.5zm.1.8l-.1-.2V8h-.2v-.7h.3c.2 0 .3.1.3.2s0 .2-.1.2l.1.3h-.3zm45.8 7.2L226.5 8h1l2.1 6.2 2.1-6.2h1l-2.6 7.2H229zm7.4-.3c-.4.3-.9.4-1.5.4-.4 0-.8-.1-1.1-.2-.3-.1-.6-.3-.8-.6-.2-.2-.4-.5-.5-.9-.1-.3-.2-.7-.2-1.1 0-.4.1-.8.2-1.1.1-.3.3-.6.5-.9.2-.2.5-.4.8-.6.3-.1.6-.2 1-.2.5 0 .8.1 1.2.3.3.2.5.4.7.7.2.3.3.6.4 1 .1.3.1.7.1 1h-3.9c0 .2 0 .4.1.6s.2.4.3.5c.1.2.3.3.5.4.2.1.5.1.7.1.4 0 .7-.1.9-.3.2-.2.4-.4.5-.8h.8c0 .9-.3 1.4-.7 1.7zm-.2-3.4c-.1-.2-.2-.3-.3-.5s-.3-.2-.5-.3c-.2-.1-.4-.1-.6-.1-.2 0-.4 0-.6.1-.2.1-.3.2-.5.3-.1.1-.2.3-.3.5-.1.2-.1.4-.1.6h3c0-.2 0-.4-.1-.6zm5.8 5.2c-.4.4-1 .6-1.8.6-.2 0-.5 0-.7-.1-.3-.1-.5-.1-.7-.3-.2-.1-.4-.3-.5-.5-.1-.2-.2-.4-.2-.7h.9c0 .2.1.3.1.4l.3.3c.1.1.3.1.4.1h.4c.3 0 .5 0 .7-.1.2-.1.4-.2.5-.4l.3-.6c.1-.2.1-.5.1-.8v-.3c-.1.3-.4.6-.7.7s-.6.2-1 .2-.7-.1-1-.2c-.3-.1-.5-.3-.7-.6-.2-.2-.3-.5-.4-.8-.1-.3-.1-.7-.1-1 0-.3 0-.6.1-1 .1-.3.2-.6.4-.9s.4-.5.7-.7c.3-.2.7-.3 1.1-.3.3 0 .6.1.9.2.3.1.5.4.6.6V10h.8v4.8c.1.8-.1 1.5-.5 1.9zm-1-2.4c.2-.1.4-.3.5-.5l.3-.6c.1-.2.1-.5.1-.7 0-.2 0-.5-.1-.7s-.1-.4-.3-.6-.3-.3-.5-.4c-.2-.1-.4-.2-.7-.2-.3 0-.5.1-.7.2-.2.1-.4.2-.5.4l-.3.6c-.1.2-.1.5-.1.7 0 .2 0 .5.1.7 0 .2.1.4.2.6.1.2.3.3.5.5.2.1.4.2.7.2.3 0 .6 0 .8-.2zm6.6.6c-.4.3-.9.4-1.5.4-.4 0-.8-.1-1.1-.2-.3-.1-.6-.3-.8-.6-.2-.2-.4-.5-.5-.9-.1-.3-.2-.7-.2-1.1 0-.4.1-.8.2-1.1.1-.3.3-.6.5-.9.2-.2.5-.4.8-.6.3-.1.6-.2 1-.2.5 0 .8.1 1.2.3.3.2.5.4.7.7.2.3.3.6.4 1 .1.3.1.7.1 1h-3.9c0 .2 0 .4.1.6s.2.4.3.5c.1.2.3.3.5.4.2.1.5.1.7.1.4 0 .7-.1.9-.3.2-.2.4-.4.5-.8h.8c-.1.9-.3 1.4-.7 1.7zm-.2-3.4c-.1-.2-.2-.3-.3-.5s-.3-.2-.5-.3c-.2-.1-.4-.1-.6-.1-.2 0-.4 0-.6.1-.2.1-.3.2-.5.3-.1.1-.2.3-.3.5-.1.2-.1.4-.1.6h3c0-.2 0-.4-.1-.6zm4.1-1.5v.8h-1v3.4s0 .1.1.1.1.1.2.1h.7v.8h-1.3c-.2 0-.3-.1-.4-.2-.1-.1-.2-.2-.2-.3s-.1-.3-.1-.6v-3.3h-.9V10h.9V8.5h.9V10h1.1zm5 5.3c-.2 0-.4-.1-.5-.2s-.2-.3-.2-.6c-.2.3-.5.5-.8.6s-.6.2-1 .2c-.2 0-.5 0-.7-.1-.2-.1-.4-.1-.5-.3s-.3-.3-.4-.5-.1-.4-.1-.7c0-.3 0-.5.2-.7.1-.2.2-.3.4-.5s.4-.2.6-.3c.2-.1.4-.1.6-.2.2 0 .5-.1.7-.1.2 0 .4-.1.6-.1.2 0 .3-.1.4-.2s.1-.2.1-.4 0-.3-.1-.5l-.3-.3c-.1-.1-.2-.1-.4-.1h-.4c-.4 0-.7.1-.9.2-.2.1-.4.4-.4.8h-.9c0-.3.1-.6.2-.8.1-.2.3-.4.5-.5.2-.1.4-.2.7-.3.3-.1.5-.1.8-.1.2 0 .5 0 .7.1s.4.1.6.2c.2.1.3.2.5.4s.2.4.2.7v3.4c0 .1.1.1.2.1s.2 0 .3-.1v.7c-.2.2-.5.2-.7.2zm-1.2-2.6c-.2 0-.4.1-.5.1s-.4.1-.6.1c-.2 0-.4.1-.5.1s-.3.2-.4.3c-.1.1-.1.3-.1.5 0 .1 0 .3.1.4.1.1.1.2.2.2.1.1.2.1.3.1h.4c.3 0 .5 0 .7-.1s.4-.2.5-.3c.1-.1.2-.2.3-.4.1-.1.1-.3.1-.4v-.9c-.2.2-.3.3-.5.3zm3.4-2.7v1.1c.2-.4.5-.7.8-.9s.7-.3 1.1-.3v.9c-.3 0-.6 0-.9.1-.2.1-.4.2-.6.4s-.3.4-.3.7c-.1.3-.1.6-.1.9v2.3h-.9V10h.9zm2.6-.9V8h.9v1h-.9zm.8.9v5.2h-.9V10h.9zm5.4 5.3c-.2 0-.4-.1-.5-.2s-.2-.3-.2-.6c-.2.3-.5.5-.8.6s-.6.2-1 .2c-.2 0-.5 0-.7-.1-.2-.1-.4-.1-.5-.3s-.3-.3-.4-.5-.1-.4-.1-.7c0-.3 0-.5.2-.7.1-.2.2-.3.4-.5s.4-.2.6-.3c.2-.1.4-.1.6-.2.2 0 .5-.1.7-.1.2 0 .4-.1.6-.1.2 0 .3-.1.4-.2s.1-.2.1-.4 0-.3-.1-.5l-.3-.3c-.1-.1-.2-.1-.4-.1h-.4c-.4 0-.7.1-.9.2-.2.1-.4.4-.4.8h-.9c0-.3.1-.6.2-.8.1-.2.3-.4.5-.5.2-.1.4-.2.7-.3.3-.1.5-.1.8-.1.2 0 .5 0 .7.1s.4.1.6.2c.2.1.3.2.5.4s.2.4.2.7v3.4c0 .1.1.1.2.1s.2 0 .3-.1v.7c-.3.2-.5.2-.7.2zm-1.2-2.6c-.2 0-.4.1-.5.1s-.4.1-.6.1c-.2 0-.4.1-.5.1s-.3.2-.4.3c-.1.1-.1.3-.1.5 0 .1 0 .3.1.4.1.1.1.2.2.2.1.1.2.1.3.1h.4c.3 0 .5 0 .7-.1s.4-.2.5-.3c.1-.1.2-.2.3-.4.1-.1.1-.3.1-.4v-.9c-.2.2-.4.3-.5.3zm3.4-2.7v.8c.4-.6.9-.9 1.7-.9.3 0 .6 0 .9.1.2.1.4.2.6.4l.3.6c.1.2.1.5.1.8v3.4h-.9v-3.5c0-.3-.1-.6-.3-.8-.2-.2-.4-.3-.8-.3-.3 0-.5 0-.7.1-.2.1-.4.2-.5.3-.1.1-.2.3-.3.5-.1.2-.1.4-.1.6V15h-.9v-5h.9z"/></svg>