<svg xmlns="http://www.w3.org/2000/svg" width="36" height="645.4" viewBox="54 0 36 644.9"><path fill="#FFF" d="M35.7 12.7c-.8-3.3-4-2.6-6.6-2.6-3.8 0-7.6.1-11.4.1H4.3c-4.7 0-3 6.1-3 9.4 0 5.5 2.8 9.6 8 11.4 3.9 1.3 9.3.4 13.3.4 4.6 0 8.6-1 11.3-5.1 2.4-3.5 1.3-9.1 1.2-13.1 0-1.2-1.8-1.2-1.8 0 .1 2.5.1 5.1.2 7.6.1 6.5-5.4 8.7-10.9 8.7h-10c-7.4 0-9.5-5.9-9.6-12.1 0-1.3-.8-5.5 1.2-5.5h13.6c2.5 0 15.3-1.9 16.1 1.1.3 1.3 2.1.8 1.8-.3z"/><path fill="#FFF" d="M12.6 15V7.2c0-3.4 3.3-4.7 6.1-4.7 2.9 0 6 1.5 6.1 4.6v8c0 1.2 1.8 1.2 1.8 0V7.3c0-4.6-3.9-6.1-7.9-6.6-4.1-.4-7.7 2.4-7.9 6.5-.2 2.6 0 5.2 0 7.8 0 1.2 1.8 1.2 1.8 0z"/><path fill="#1D1D1B" d="M35.7 625.7c-.8-3.3-4-2.6-6.6-2.6-3.8 0-7.6.1-11.4.1H4.3c-4.7 0-3 6.1-3 9.4 0 5.5 2.8 9.6 8 11.4 3.9 1.3 9.3.4 13.3.4 4.6 0 8.6-1 11.3-5.1 2.4-3.5 1.3-9.1 1.2-13.1 0-1.2-1.8-1.2-1.8 0 .1 2.5.1 5.1.2 7.6.1 6.5-5.4 8.7-10.9 8.7h-10c-7.4 0-9.5-5.9-9.6-12.1 0-1.3-.8-5.5 1.2-5.5h13.6c2.5 0 15.3-1.9 16.1 1.1.3 1.3 2.1.9 1.8-.3z"/><path fill="#1D1D1B" d="M12.6 628v-7.8c0-3.4 3.3-4.7 6.1-4.7 2.9 0 6 1.5 6.1 4.6v8c0 1.2 1.8 1.2 1.8 0v-7.8c0-4.6-3.9-6.1-7.9-6.6-4.1-.4-7.7 2.4-7.9 6.5-.2 2.6 0 5.2 0 7.8 0 1.2 1.8 1.2 1.8 0z"/><path fill="gray" d="M35.7 146.7c-.8-3.3-4-2.6-6.6-2.6-3.8 0-7.6.1-11.4.1H4.3c-4.7 0-3 6.1-3 9.4 0 5.5 2.8 9.6 8 11.4 3.9 1.3 9.3.4 13.3.4 4.6 0 8.6-1 11.3-5.1 2.4-3.5 1.3-9.1 1.2-13.1 0-1.2-1.8-1.2-1.8 0 .1 2.5.1 5.1.2 7.6.1 6.5-5.4 8.7-10.9 8.7h-10c-7.4 0-9.5-5.9-9.6-12.1 0-1.3-.8-5.5 1.2-5.5h13.6c2.5 0 15.3-1.9 16.1 1.1.3 1.3 2.1.8 1.8-.3z"/><path fill="gray" d="M12.6 149v-7.8c0-3.4 3.3-4.7 6.1-4.7 2.9 0 6 1.5 6.1 4.6v8c0 1.2 1.8 1.2 1.8 0v-7.8c0-4.6-3.9-6.1-7.9-6.6-4.1-.4-7.7 2.4-7.9 6.5-.2 2.6 0 5.2 0 7.8 0 1.2 1.8 1.2 1.8 0z"/><path fill="#FFF" d="M32.1 301.9c1.2 0 1.1-1.8 0-1.8-9.4.1-17.2-.2-26.6.1-1.4 0-2.4 1.1-2.4 2.4-.1 4.4-.7 7.9 1.5 11.9 2.6 4.8 8.4 4.4 13 4.4 4.4 0 10 .7 13-3.3 3.1-4 2.1-9.4 2.1-14.4"/><path fill="#FFF" d="M12.8 303.3s.1-2.4.1-4.4v-2.2c.2-2.4 2.8-4 5.3-3.8 2.1.1 3.6.9 4.4 2.9.3.8.3 2.1.3 2.9 0 1.7.1 5.1.1 5.9s2.3 1 2.3.1c0-1.7-.2-4.6-.2-7.7 0-3.7-2.8-5.6-6.1-6-4.1-.5-8 1.7-8.3 5.6-.1 2.2.1 5.5.1 8.1 0 .9 2.1.9 2.1.1.1 0-.1-.5-.1-1.5z"/><path fill="gray" d="M32.1 491.9c1.2 0 1.1-1.8 0-1.8-9.4.1-17.2-.2-26.6.1-1.4 0-2.4 1.1-2.4 2.4-.1 4.4-.7 7.9 1.5 11.9 2.6 4.8 8.4 4.4 13 4.4 4.4 0 10 .7 13-3.3 3.1-4 2.1-9.4 2.1-14.4"/><path fill="gray" d="M12.8 493.3s.1-2.4.1-4.4v-2.2c.2-2.4 2.8-4 5.3-3.8 2.1.1 3.6.9 4.4 2.9.3.8.3 2.1.3 2.9 0 1.7.1 5.1.1 5.9s2.3 1 2.3.1c0-1.7-.2-4.6-.2-7.7 0-3.7-2.8-5.6-6.1-6-4.1-.5-8 1.7-8.3 5.6-.1 2.2.1 5.5.1 8.1 0 .9 2.1.9 2.1.1.1 0-.1-.5-.1-1.5zm54.1-344.7s-.3-2.6-.3-4.8c0-.6-.1-1.7-.1-2.3.2-2.6 3-4.1 5.7-4 2.2.1 3.9.8 4.7 3 .3.8.4 2.3.4 3.1 0 1.9.1 5.5.1 6.4 0 1.6 2.4 2 2.4 1.1 0-1.9-.2-5.8-.2-9.2 0-4-3-6-6.5-6.5-4.4-.6-8.6 1.8-8.9 6-.2 2.4.1 5.9.3 8.7.1 1.6 2.6 1.7 2.6.7 0 .1-.2-1.1-.2-2.2z"/><path fill="gray" d="M89 147.2c.1-2.1-1.3-3.5-3.6-3.5-3.6 0-10.5.2-14.1.2H58.1c-5 0-3.2 6.8-3.2 10.2.1 12.4 12.9 11.2 21.6 11.2 4.6 0 8.6-1.3 11.2-5.4 2-3.4 1.3-8.8 1.3-12.7 0-1.4-2.3-1.4-2.3 0 .1 2.5-.1 5 0 7.5.1 6.5-5.6 8.1-10.9 8.1h-9.6c-6.8 0-9.1-5.2-9.2-11.1 0-.8-.6-5.7.6-5.7h13.8c2.3 0 14.9-1 15.2 1.1.2 1.4 2.3 1.4 2 0l.4.1z"/><path fill="#FFF" d="M66.9 14.6s-.3-2.6-.3-4.8c0-.6-.1-1.7-.1-2.3.2-2.6 3-4.1 5.7-4 2.2.1 3.9.8 4.7 3 .3.8.4 2.3.4 3.1 0 1.9.1 5.5.1 6.4 0 1.6 2.4 2 2.4 1.1 0-1.9-.2-5.8-.2-9.2 0-4-3-6-6.5-6.5-4.4-.6-8.6 1.8-8.9 6-.2 2.4.1 5.9.3 8.7.1 1.6 2.6 1.7 2.6.7 0 .1-.2-1.1-.2-2.2z"/><path fill="#FFF" d="M89 13.2c.1-2.1-1.3-3.5-3.6-3.5-3.6 0-10.5.2-14.1.2H58.1c-5 0-3.2 6.8-3.2 10.2.1 12.4 12.9 11.2 21.6 11.2 4.6 0 8.6-1.3 11.2-5.4 2-3.4 1.3-8.8 1.3-12.7 0-1.4-2.3-1.4-2.3 0 .1 2.5-.1 5 0 7.5.1 6.5-5.6 8.1-10.9 8.1h-9.6c-6.8 0-9.1-5.2-9.2-11.1 0-.8-.6-5.7.6-5.7h13.8c2.3 0 14.9-1 15.2 1.1.2 1.4 2.3 1.4 2 0l.4.1z"/><g fill="#FFF"><path d="M66.9 301.6s-.3-2.6-.3-4.8c0-.6-.1-1.7-.1-2.3.2-2.6 3-4.1 5.7-4 2.2.1 3.9.8 4.7 3 .3.8.4 2.3.4 3.1 0 1.9.1 5.5.1 6.4 0 1.6 2.4 2 2.4 1.1 0-1.9-.2-5.8-.2-9.2 0-4-3-6-6.5-6.5-4.4-.6-8.6 1.8-8.9 6-.2 2.4.1 5.9.3 8.7.1 1.6 2.6 1.7 2.6.7 0 .1-.2-1.1-.2-2.2z"/><path d="M89 300.2c.1-2.1-1.3-3.5-3.6-3.5-3.6 0-10.5.2-14.1.2H58.1c-5 0-3.2 6.8-3.2 10.2.1 12.4 12.9 11.2 21.6 11.2 4.6 0 8.6-1.3 11.2-5.4 2-3.4 1.3-8.8 1.3-12.7 0-1.4-2.3-1.4-2.3 0 .1 2.5-.1 5 0 7.5.1 6.5-5.6 8.1-10.9 8.1h-9.6c-6.8 0-9.1-5.2-9.2-11.1 0-.8-.6-5.7.6-5.7h13.8c2.3 0 14.9-1 15.2 1.1.2 1.4 2.3 1.4 2 0l.4.1z"/></g><path d="M66.9 627.6s-.3-2.6-.3-4.8c0-.6-.1-1.7-.1-2.3.2-2.6 3-4.1 5.7-4 2.2.1 3.9.8 4.7 3 .3.8.4 2.3.4 3.1 0 1.9.1 5.5.1 6.4 0 1.6 2.4 2 2.4 1.1 0-1.9-.2-5.8-.2-9.2 0-4-3-6-6.5-6.5-4.4-.6-8.6 1.8-8.9 6-.2 2.4.1 5.9.3 8.7.1 1.6 2.6 1.7 2.6.7 0 .1-.2-1.1-.2-2.2z"/><path d="M89 626.2c.1-2.1-1.3-3.5-3.6-3.5-3.6 0-10.5.2-14.1.2H58.1c-5 0-3.2 6.8-3.2 10.2.1 12.4 12.9 11.2 21.6 11.2 4.6 0 8.6-1.3 11.2-5.4 2-3.4 1.3-8.8 1.3-12.7 0-1.4-2.3-1.4-2.3 0 .1 2.5-.1 5 0 7.5.1 6.5-5.6 8.1-10.9 8.1h-9.6c-6.8 0-9.1-5.2-9.2-11.1 0-.8-.6-5.7.6-5.7h13.8c2.3 0 14.9-1 15.2 1.1.2 1.4 2.3 1.4 2 0l.4.1z"/><g fill="gray"><path d="M67.1 493.3s-.3-2.4-.3-4.5c0-.6-.1-1.6 0-2.2.2-2.4 2.8-3.9 5.3-3.7 2.1.1 3.6.8 4.4 2.8.3.8.3 2.1.3 2.9 0 1.8.1 5.1.1 6 0 1.5 2.3 1.8 2.3 1 0-1.7-.2-5.4-.2-8.6 0-3.7-2.8-5.6-6.1-6-4.1-.5-8.1 1.7-8.3 5.6-.1 2.3.1 5.5.3 8.1.1 1.5 2.4 1.6 2.4.7-.1.1-.2-1.1-.2-2.1z"/><path d="M87.7 492c.1-2-1.3-3.3-3.4-3.3-3.4 0-9.8.2-13.2.2H58.7c-4.6 0-3 6.3-3 9.5 0 11.6 12.1 10.5 20.2 10.5 4.3 0 8.1-1.2 10.4-5.1 2.1-3.1 1.5-8.2 1.4-11.8 0-1.3-2.2-1.3-2.2 0 .1 2.4-.1 4.8 0 7.1.1 6-5.3 7.7-10.2 7.7h-8.9c-6.3 0-8.5-5-8.5-10.4 0-.8-.5-5.4.6-5.4h12.9c2.2 0 13.9-1 14.2 1 .2 1.3 2.2 1.3 1.9 0h.2z"/><path d="M63.9 491.6h-6.6l-.7 3.2 1 5.9.9 3.2 1.7 1.9 3.7 1.1 4.7 1.3h4.2l3.7-1 3.4.2 4.7-2.2.4-2.7 1.2-2.6v-8.8"/><path d="M64.4 490.8h-6.7L57 494l1.1 5.9.9 3.2 1.7 1.9 3.7 1.1 4.6 1.4h4.2l3.7-1.1 3.5.2 4.6-2.2.5-2.7 1.2-2.6v-8.8"/></g></svg>