<svg xmlns="http://www.w3.org/2000/svg" width="297.568" height="96.583" viewBox="0 0 297.568 96.583"><path d="M2.938 17.36c3.29 1.63 8.413 2.344 10.843-.97.31-.414.07-1.042-.34-1.28-3.2-1.877-5.15-4.258-5.63-8.114-.12-.983 7.64 3.978 7.82 4.155.39.39 1.23.37 1.47-.19.538-1.27 1.02-2.55 1.67-3.77 1.75-3.29 4.6 1.13 5.462 2.29.973 1.316 1.38 1.94 3 2.48l.005-1.81a6.616 6.616 0 0 1-2.25.562c-.317.05-.58.365-.66.658-1.463 5.237-4.137 8.227-9.794 8.73-4.47.4-8.165-1.23-11.143-4.336l-.908 1.57.25.064c1.173.294 1.667-1.515.494-1.81l-.25-.06c-.92-.23-1.56.89-.908 1.57C5.81 21 10.73 22.856 16.338 21.804c2.722-.51 4.735-1.34 6.687-3.326 2.01-2.045 1.85-5.526 4.69-6.515.888-.307.917-1.506.008-1.81-2.786-.93-3.43-5.135-6.563-5.995-3.37-.926-4.745 3.637-5.686 5.87l1.47-.2c-2.57-2.55-6.32-5.078-10.025-5.21-.52-.02-.93.432-.947.93-.085 3.336.86 5.84 2.92 8.443.45.568 3.365 1.937 1.774 2.577-1.994.805-4.95.09-6.79-.82-1.08-.534-2.022 1.087-.937 1.624zm100.97 5.383c.204-4.707 3.196-8.807 3.17-13.53-.01-1.577-1.743-2.733-2.928-1.46-1.342 1.44-.437 4.95-.11 6.653.554 2.9 3.216 4.266 5.892 3.723 6.962-1.42 5.796-12.92.4-15.39-2.585-1.19-6.606-1.4-8.86.61-3.746 3.332-3.903 6.62-1.243 10.7.78 1.21 2.73.08 1.94-1.14-1.72-2.64-2.23-4.628.02-7.2 1.963-2.246 5.38-1.77 7.77-.67 2.6 1.19 2.75 4.83 2.32 7.18-.51 2.774-4.953 6.01-6.077 1.6-.243-.95-.29-1.956-.358-2.927-.18-2.614-1.014-.57-1.383.97-.885 3.695-2.65 7-2.815 10.856-.066 1.453 2.185 1.46 2.25.015zm-42.914-.36c.008-3.01.06-6.02.122-9.03.053-2.55-.758-8.815 3.616-7.618 1.402.384 1.992-1.788.594-2.17-2.995-.82-5.22.146-6.11 3.144-.5 1.68-.293 3.6-.323 5.33-.06 3.44-.14 6.88-.15 10.32-.004 1.45 2.247 1.462 2.25.02z"/><path d="M57.393 12.765c2.69-.735 5.49-.082 8.226-.036 1.45.02 1.46-2.23.01-2.26-2.96-.05-5.91-.684-8.83.112-1.4.383-.817 2.557.583 2.174zM226.926 3.95c-8.057-.657-15.922 0-24 0a.947.947 0 0 0-.944.93v15.497c0 .508.418.944.93.944h23.812a.947.947 0 0 0 .944-.93V4.9c0-1.21-1.875-1.22-1.875-.014V20.1c0-.128 1.58-.65-.05-.65h-20.766c-2.282 0-1.12-.37-1.12.872V4.966c0 1.177-1.372.86.824.86h3.48c6.37 0 12.38-.52 18.76 0 1.21.1 1.21-1.778.015-1.875z"/><path d="M202.26 5.554c3.816 3.606 7.676 5.34 12.432 7.632 2.25 1.085 10.88-6.23 12.7-7.49.988-.682.05-2.307-.948-1.617l-6.092 4.21c-.653.45-1.386.81-2.074 1.2l-2.395 1.38c-1.03.59-1.157.25-.353.64-4.518-2.18-8.316-3.86-11.953-7.296-.876-.83-2.2.5-1.318 1.333zm-48.464 8.406c-2.232-.024-5.52.223-7.153 1.953-1.916 2.028-1.122 4.866 1.386 5.953 2.34 1.016 6.88 1.377 8.57-1.045 2.59-3.72.37-5.2-2.45-7.71-.61-.54 1.7-3.02 1.98-3.82.412-1.17.262-2.99-.327-4.08-1.11-2.04-3.79-3.49-6.09-2.36-5.57 2.75-2.068 11.06 3.93 9.04 1.14-.38.663-2.2-.484-1.81-1.51.51-3.02.42-4-.95-2.413-3.384 3.657-7.03 5.16-2.493.922 2.783-3.165 4.063-2.417 6.287.325.97.86 1.47 1.64 2.167.673.6 1.37 1.163 2.034 1.774 2.012 1.86-2.09 3.81-3.61 3.85-1.318.035-3.98-.39-4.48-1.902-.584-1.744 1.922-2.34 2.91-2.61 1.08-.294 2.257-.363 3.376-.35 1.21.014 1.22-1.86.01-1.875zm7.64-5.224v6.48c0 1.21 1.876 1.22 1.876.014V8.75c0-1.21-1.875-1.222-1.875-.014z"/><path d="M165.298 11.37h-5.832c-1.21 0-1.22 1.874-.014 1.874h5.832c1.21 0 1.222-1.875.014-1.875zm128.937-7.592v7.305h-4.252c-.756-3-2.488-2.95-4.502-2.95s-3.74-.05-4.5 2.95h-4.74V4.778l18-1z"/><path d="M295.67 5.555c-.692-3.41-4.087-2.826-6.768-2.826h-10.527c-3.706 0-3.125 4.36-3.125 6.8v10.53c0 3.705 4.368 3.124 6.81 3.124h10.526c3.706 0 3.125-4.37 3.125-6.81V5.854c0-1.45-2.25-1.45-2.25 0V20.02c0 1.812-13.3.92-15.04.92-1.81 0-.92-13.303-.92-15.04 0-1.69 7.1-.92 7.98-.92 1.5 0 7.58-1.026 8.03 1.173.29 1.42 2.458.818 2.17-.598z"/><path d="M291.14 12.96c-.172-3.205-2.456-5.49-5.66-5.662-3.197-.172-5.502 2.716-5.66 5.66-.173 3.198 2.715 5.503 5.66 5.662 3.197.172 5.502-2.716 5.66-5.66.053-.968-1.447-.963-1.5 0-.288 5.36-8.03 5.36-8.32 0-.29-5.366 8.034-5.338 8.32 0 .053.96 1.553.966 1.5 0z"/><path fill="#FFF" d="M293.235 8.083a1 1 0 0 1-1 1h-1a1 1 0 0 1-1-1v-1a1 1 0 0 1 1-1h1a1 1 0 0 1 1 1v1zM2.938 87.36c3.29 1.63 8.413 2.344 10.843-.97.31-.414.07-1.042-.34-1.28-3.2-1.877-5.15-4.258-5.63-8.114-.12-.983 7.64 3.978 7.82 4.155.39.39 1.23.37 1.47-.19.538-1.27 1.02-2.55 1.67-3.77 1.75-3.29 4.6 1.13 5.462 2.29.973 1.316 1.38 1.94 3 2.48l.005-1.81a6.616 6.616 0 0 1-2.25.562c-.317.05-.58.365-.66.658-1.463 5.237-4.137 8.227-9.794 8.73-4.47.4-8.165-1.23-11.143-4.336l-.908 1.57.25.064c1.173.294 1.667-1.515.494-1.81l-.25-.06c-.92-.23-1.56.89-.908 1.57C5.81 91 10.73 92.856 16.338 91.804c2.722-.51 4.735-1.34 6.687-3.326 2.01-2.045 1.85-5.526 4.69-6.515.888-.307.917-1.506.008-1.81-2.786-.93-3.43-5.135-6.563-5.995-3.37-.926-4.745 3.637-5.686 5.87l1.47-.2c-2.572-2.545-6.32-5.074-10.027-5.206-.518-.02-.93.43-.945.93-.087 3.335.857 5.84 2.92 8.442.45.567 3.363 1.936 1.772 2.576-1.99.802-4.95.088-6.785-.822-1.08-.535-2.026 1.086-.94 1.623zm100.97 5.383c.204-4.707 3.196-8.807 3.17-13.53-.01-1.577-1.743-2.733-2.928-1.46-1.342 1.44-.437 4.95-.11 6.653.554 2.9 3.216 4.266 5.892 3.723 6.962-1.42 5.796-12.92.4-15.39-2.585-1.19-6.606-1.4-8.86.61-3.746 3.332-3.903 6.62-1.243 10.7.78 1.21 2.73.08 1.94-1.14-1.72-2.64-2.23-4.628.02-7.2 1.963-2.246 5.38-1.77 7.77-.67 2.6 1.19 2.75 4.83 2.32 7.18-.51 2.774-4.953 6.01-6.077 1.6-.243-.95-.29-1.956-.358-2.927-.18-2.614-1.014-.57-1.383.97-.885 3.695-2.65 7-2.815 10.856-.066 1.453 2.185 1.46 2.25.015z"/><g fill="#FFF"><path d="M60.994 92.382c.008-3.01.06-6.02.122-9.03.053-2.55-.758-8.814 3.616-7.617 1.402.384 1.992-1.788.594-2.17-2.995-.82-5.22.146-6.11 3.144-.5 1.68-.293 3.6-.323 5.33-.06 3.44-.14 6.88-.15 10.32-.004 1.45 2.247 1.462 2.25.02z"/><path d="M57.393 82.765c2.69-.735 5.49-.082 8.226-.036 1.45.02 1.46-2.23.01-2.26-2.96-.05-5.91-.684-8.83.112-1.4.383-.817 2.557.583 2.174z"/></g><g fill="#FFF"><path d="M226.926 73.95c-8.057-.657-15.922 0-24 0a.947.947 0 0 0-.944.93v15.497c0 .508.418.944.93.944h23.812a.947.947 0 0 0 .944-.93V74.9c0-1.21-1.875-1.22-1.875-.014V90.1c0-.128 1.58-.65-.05-.65h-20.766c-2.282 0-1.12-.37-1.12.872V74.966c0 1.177-1.372.86.824.86h3.48c6.37 0 12.38-.52 18.76 0 1.21.1 1.21-1.778.015-1.875z"/><path d="M202.26 75.554c3.816 3.606 7.676 5.34 12.432 7.632 2.25 1.085 10.88-6.23 12.7-7.49.988-.682.05-2.307-.948-1.617l-6.092 4.21c-.653.45-1.386.81-2.074 1.2l-2.395 1.38c-1.03.59-1.157.25-.353.64-4.518-2.18-8.316-3.86-11.953-7.296-.876-.83-2.2.5-1.318 1.333z"/></g><g fill="#FFF"><path d="M153.796 83.96c-2.232-.024-5.52.223-7.153 1.953-1.916 2.028-1.122 4.866 1.386 5.953 2.34 1.016 6.88 1.377 8.57-1.045 2.59-3.72.37-5.2-2.45-7.71-.61-.54 1.7-3.02 1.98-3.82.412-1.17.262-2.99-.327-4.08-1.11-2.04-3.79-3.49-6.09-2.36-5.57 2.75-2.068 11.06 3.93 9.04 1.14-.38.663-2.2-.484-1.81-1.51.51-3.02.42-4-.95-2.413-3.384 3.657-7.03 5.16-2.493.922 2.783-3.165 4.063-2.417 6.287.325.97.86 1.47 1.64 2.167.673.6 1.37 1.163 2.034 1.774 2.012 1.86-2.09 3.81-3.61 3.85-1.318.035-3.98-.39-4.48-1.902-.584-1.744 1.922-2.34 2.91-2.61 1.08-.294 2.257-.363 3.376-.35 1.21.014 1.22-1.86.01-1.875zm7.64-5.224v6.48c0 1.21 1.876 1.22 1.876.014v-6.48c0-1.21-1.875-1.222-1.875-.014z"/><path d="M165.298 81.37h-5.832c-1.21 0-1.22 1.874-.014 1.874h5.832c1.21 0 1.222-1.875.014-1.875z"/></g><path fill="#FFF" d="M294.235 73.778v7.305h-4.252c-.756-3-2.488-2.95-4.502-2.95s-3.74-.05-4.5 2.95h-4.74v-6.305l18-1z"/><path fill="#FFF" d="M295.67 75.555c-.692-3.41-4.087-2.826-6.768-2.826h-10.527c-3.706 0-3.125 4.36-3.125 6.8v10.53c0 3.705 4.368 3.124 6.81 3.124h10.526c3.706 0 3.125-4.37 3.125-6.81v-10.52c0-1.45-2.25-1.45-2.25 0V90.02c0 1.812-13.3.92-15.04.92-1.81 0-.92-13.303-.92-15.04 0-1.69 7.1-.92 7.98-.92 1.5 0 7.58-1.026 8.03 1.173.29 1.42 2.458.818 2.17-.598z"/><path fill="#FFF" d="M291.14 82.96c-.172-3.205-2.456-5.49-5.66-5.662-3.197-.172-5.502 2.716-5.66 5.66-.173 3.198 2.715 5.503 5.66 5.662 3.197.172 5.502-2.716 5.66-5.66.053-.968-1.447-.963-1.5 0-.288 5.36-8.03 5.36-8.32 0-.29-5.366 8.034-5.338 8.32 0 .053.96 1.553.966 1.5 0z"/><path fill="#1D1D1B" d="M293.235 78.083a1 1 0 0 1-1 1h-1a1 1 0 0 1-1-1v-1a1 1 0 0 1 1-1h1a1 1 0 0 1 1 1v1z"/></svg>