<svg xmlns="http://www.w3.org/2000/svg" width="108.75" height="20.75" viewBox="0 0 108.75 20.75"><path d="M1.636 1.467h5.442v13.32h8.494v4.353H1.636V1.467zm27.234 0h5.43v10.53c0 1.043-.16 2.03-.486 2.957a6.393 6.393 0 0 1-1.526 2.434c-.693.694-1.42 1.182-2.18 1.462-1.058.394-2.328.59-3.81.59-.856 0-1.79-.06-2.804-.18-1.013-.12-1.86-.36-2.54-.716-.682-.357-1.304-.866-1.87-1.524-.564-.66-.95-1.337-1.158-2.036-.336-1.124-.505-2.12-.505-2.988V1.466h5.43v10.78c0 .964.27 1.717.8 2.26.54.54 1.28.812 2.22.812.94 0 1.67-.267 2.21-.8.534-.534.8-1.29.8-2.27V1.468zm26.827 0h5.442V7.65h5.94V1.468h5.463V19.14H67.08v-7.15h-5.94v7.15h-5.443V1.467zm-18.742 11.5h5.178c.112.845.34 1.488.685 1.93.56.715 1.362 1.073 2.403 1.073.78 0 1.38-.183 1.8-.55.42-.365.63-.788.63-1.27 0-.46-.2-.87-.6-1.23-.4-.363-1.33-.704-2.79-1.026-2.38-.538-4.09-1.254-5.1-2.146-1.024-.892-1.54-2.03-1.54-3.412 0-.908.26-1.766.79-2.574.524-.808 1.312-1.443 2.366-1.905s2.496-.693 4.33-.693c2.25 0 3.967.42 5.148 1.26 1.18.84 1.94 2.477 2.167 4.31h-5.19c-.136-.795-.423-1.374-.86-1.736-.435-.362-1.04-.543-1.807-.543-.635 0-1.11.134-1.43.404-.32.26-.48.59-.48.98 0 .28.13.53.395.76.256.23.865.45 1.826.65 2.38.51 4.085 1.03 5.114 1.56 1.03.52 1.778 1.18 2.246 1.96.47.78.703 1.65.703 2.61A5.62 5.62 0 0 1 52 16.52c-.626.956-1.5 1.682-2.62 2.176-1.12.494-2.535.74-4.24.74-2.996 0-5.07-.577-6.224-1.735-1.153-1.156-1.806-2.95-1.96-4.736zm41.325.503V9.78h.742v1.454h1.456V9.778h.744v3.693h-.744v-1.61h-1.456v1.62h-.743zm7.028 0H84.5l-.322-.838h-1.47l-.304.84h-.788l1.433-3.694h.78l1.47 3.692zm-1.368-1.46l-.507-1.37-.497 1.37h1.004zm1.77 1.46V9.78h.722l1.506 2.467v-2.47h.69v3.694h-.745l-1.483-2.4v2.41h-.69zm3.703-3.692h1.357c.307 0 .54.024.7.07.217.065.402.178.556.34.154.164.27.363.352.6.08.235.12.526.12.872 0 .304-.038.566-.113.786-.092.27-.223.487-.394.653a1.315 1.315 0 0 1-.52.29 2.24 2.24 0 0 1-.65.08h-1.4V9.78zm.742.625v2.446h.555c.207 0 .357-.02.45-.04a.68.68 0 0 0 .3-.16.785.785 0 0 0 .193-.357c.05-.166.076-.39.076-.677s-.03-.504-.08-.658a.845.845 0 0 0-.21-.36.717.717 0 0 0-.35-.173 3.58 3.58 0 0 0-.61-.033h-.334zm2.965 3.067V9.78h1.11l.668 2.52.66-2.52h1.115v3.693h-.69v-2.906l-.73 2.907h-.717l-.727-2.906v2.907h-.69zm7.61 0h-.81l-.32-.838h-1.47l-.305.84h-.788l1.433-3.694h.786l1.474 3.693zm-1.37-1.46l-.505-1.37-.498 1.37h1.004zm1.762-2.232h1.358c.307 0 .54.024.7.07.216.065.4.178.555.34.154.164.27.363.352.6.08.235.12.526.12.872 0 .304-.038.566-.113.786-.092.27-.224.487-.394.653a1.305 1.305 0 0 1-.522.29 2.235 2.235 0 0 1-.657.08h-1.39V9.78zm.743.625v2.446h.555c.207 0 .357-.02.45-.04a.69.69 0 0 0 .3-.16c.08-.073.143-.192.194-.357.05-.166.075-.39.075-.677s-.03-.504-.08-.658a.856.856 0 0 0-.21-.36.726.726 0 0 0-.35-.173 3.584 3.584 0 0 0-.61-.033h-.335zm2.972 3.067V9.78h2.73v.625h-1.987v.82h1.848v.62h-1.848v1.006h2.056v.62h-2.8zM80.6 17.66l.703.223c-.11.395-.288.686-.54.877-.25.19-.568.287-.954.287-.48 0-.87-.164-1.18-.49-.31-.328-.46-.775-.46-1.343 0-.6.15-1.067.46-1.4.31-.33.71-.497 1.22-.497.44 0 .79.13 1.07.39.16.155.28.376.37.665l-.72.172a.763.763 0 0 0-.27-.443.76.76 0 0 0-.49-.16.815.815 0 0 0-.65.29c-.167.19-.25.5-.25.93 0 .46.08.78.245.98a.79.79 0 0 0 .636.29.72.72 0 0 0 .497-.183c.14-.122.24-.316.3-.58zm1.178-.455c0-.368.055-.676.165-.926.08-.19.193-.35.334-.5a1.42 1.42 0 0 1 .465-.33 1.96 1.96 0 0 1 .775-.142c.53 0 .953.164 1.27.494.32.33.478.79.478 1.376 0 .585-.158 1.04-.473 1.37-.315.33-.737.493-1.265.493-.535 0-.96-.164-1.276-.49-.31-.327-.47-.78-.47-1.35zm.748-.025c0 .41.094.718.282.93a.92.92 0 0 0 .716.315c.29 0 .527-.104.712-.314.186-.2.278-.52.278-.94 0-.41-.09-.72-.27-.92a.915.915 0 0 0-.72-.302.92.92 0 0 0-.724.31c-.182.206-.274.516-.274.93zm6.646 1.806v-3.608h1.087l.65 2.46.64-2.46h1.09v3.608h-.678v-2.84l-.714 2.84h-.7l-.71-2.84v2.84h-.675zm4.194 0v-3.608h2.666v.61h-1.94v.8h1.805v.608h-1.805v.982h2.01v.608h-2.736zm4.16 0V15.99H96.46v-.612h2.855v.61H98.25v2.998h-.725zm2.236 0v-3.608h.726v3.608h-.726zm3.718-1.326l.703.223c-.107.395-.287.686-.538.877-.252.19-.57.287-.956.287-.48 0-.87-.164-1.18-.49-.31-.328-.46-.775-.46-1.343 0-.6.15-1.067.46-1.4.31-.33.71-.497 1.22-.497.44 0 .792.13 1.07.39.16.155.283.376.37.665l-.72.172a.766.766 0 0 0-.267-.443.763.763 0 0 0-.493-.16.817.817 0 0 0-.65.29c-.164.19-.246.5-.246.93 0 .46.08.78.245.98a.8.8 0 0 0 .636.29.72.72 0 0 0 .496-.183c.14-.122.24-.316.3-.58zm-17.832.085h.707c.042.238.128.413.26.525.13.11.304.167.525.167.234 0 .41-.05.53-.148a.448.448 0 0 0 .177-.35.33.33 0 0 0-.074-.22.603.603 0 0 0-.262-.16 9.413 9.413 0 0 0-.58-.16c-.39-.097-.66-.216-.82-.357a.94.94 0 0 1-.33-.726.93.93 0 0 1 .16-.515.982.982 0 0 1 .45-.366 1.8 1.8 0 0 1 .71-.126c.45 0 .79.1 1.02.296.23.197.35.494.36.826h-.73c-.03-.185-.1-.32-.2-.4-.1-.082-.253-.122-.46-.122-.21 0-.373.044-.492.13a.263.263 0 0 0-.115.225.28.28 0 0 0 .107.22c.09.075.313.156.666.24.352.083.613.17.782.26.17.09.302.21.398.365a1.1 1.1 0 0 1 .144.576 1.065 1.065 0 0 1-.658.984c-.21.086-.47.13-.786.13-.454 0-.804-.105-1.047-.316-.25-.21-.39-.59-.44-.99zm18.975 0h.707c.043.238.13.413.26.525.13.11.305.167.525.167.234 0 .41-.05.528-.148.12-.1.178-.22.178-.35a.33.33 0 0 0-.07-.22.605.605 0 0 0-.26-.16 9.523 9.523 0 0 0-.58-.16c-.39-.097-.66-.216-.82-.357a.94.94 0 0 1-.33-.726.91.91 0 0 1 .16-.515.977.977 0 0 1 .45-.366 1.8 1.8 0 0 1 .707-.126c.45 0 .79.1 1.02.296.227.197.35.494.362.826h-.73c-.03-.185-.1-.32-.2-.4-.103-.082-.256-.122-.46-.122-.21 0-.377.044-.496.13a.262.262 0 0 0-.115.225.28.28 0 0 0 .106.22c.09.075.315.156.668.24.353.083.614.17.784.26.17.09.3.21.4.365a1.1 1.1 0 0 1 .142.576 1.062 1.062 0 0 1-.66.984c-.21.086-.47.13-.78.13-.456 0-.806-.105-1.05-.316-.243-.21-.39-.59-.436-.99zM89.028 6.895c0-.077-.002-.153-.003-.23-.01-.17-.015-.327-.023-.45-.04-.58-.203-1.183-.732-1.433a1.64 1.64 0 0 0 .4-.318c.285-.318.428-.72.428-1.208 0-.385-.094-.726-.282-1.024-.19-.3-.44-.506-.753-.622-.314-.117-.817-.176-1.51-.176h-2.75v6.5h1.306V5.22h1.46l-.01.002c.71 0 .97.297 1.07.974.02.15.033.31.046.47l.002.23c.03.377.057.76.174 1.037h1.413c-.17-.242-.22-.662-.243-1.037zm-2.952-2.71h-.968v-1.65h1.02c.53 0 .85.007.956.022a.8.8 0 0 1 .492.255c.117.134.175.31.175.53a.852.852 0 0 1-.13.487.71.71 0 0 1-.36.27c-.156.05-.547.08-1.174.08zM78.28 7.93V1.436h4.437v1.1h-3.13V4.07h2.7v1.1h-2.7v2.76H78.28zm12.045 0V1.436h4.8v1.1H91.63v1.44h3.25V5.07h-3.25v1.767h3.617V7.93h-4.922zm5.7-2.237h1.27c.078.428.233.743.467.944.234.2.55.3.948.3.42 0 .738-.09.95-.267.215-.18.322-.388.322-.627a.595.595 0 0 0-.134-.392c-.092-.1-.248-.2-.472-.28a21.7 21.7 0 0 0-1.046-.28c-.7-.17-1.192-.39-1.475-.64-.397-.354-.595-.79-.595-1.304 0-.33.093-.64.28-.93a1.76 1.76 0 0 1 .808-.66c.35-.15.777-.224 1.274-.224.812 0 1.424.18 1.834.537.412.36.634.893.655 1.49H99.8c-.056-.333-.176-.573-.36-.72-.184-.146-.46-.22-.827-.22-.38 0-.677.08-.892.236a.475.475 0 0 0-.2.4c0 .154.068.285.197.395.166.14.566.283 1.2.434.638.15 1.108.306 1.413.467.303.16.54.38.714.66.173.277.26.623.26 1.033 0 .375-.103.72-.31 1.048a1.85 1.85 0 0 1-.874.727c-.377.16-.846.24-1.408.24-.82 0-1.447-.19-1.886-.57-.44-.38-.705-1.06-.79-1.786zm6.367 2.237V1.436h1.308v2.557h2.56V1.435h1.308V7.93h-1.307V5.09h-2.56v2.84h-1.3z" fill="#FFF"/></svg>