<svg enable-background="new 0 0 91 42" viewBox="0 0 91 42" xmlns="http://www.w3.org/2000/svg"><path clip-rule="evenodd" d="m.4 33.1c3.7-.1 4.6-.9 4.6-2.6v-25c0-1.7-.9-2.5-4.6-2.6v-.5h14.9c9.7 0 12.3 3.8 12.3 7.5 0 3.3-2.6 6.5-9.5 7.2v.1c7.1.3 10.6 3.4 10.6 7.7 0 4.5-3.1 8.8-13 8.8h-15.3zm14.4-16.3c4.9 0 6.2-2.6 6.2-6.8 0-3.9-1.1-6.8-6.3-6.8h-3.1v13.6zm.5 16.1c5.7 0 6.7-3 6.7-8 0-4-1.7-7.3-7.2-7.3h-3.3v15.3zm23.1-32.2c-.4.3-.6.5-.6 1 0 .1 0 .3.1.5.4.7 1.1.6 1.3.6.5 0 1-.1 2-.4.4-.1.9-.2 1.4-.4.7-.2 2.9-.7 5.1-.7 1.6 0 5.5.3 9 3.2 3.7 3.1 5.4 7.7 5.4 12.5 0 5.4-2 9-3.1 10.6-2.6 3.8-7 6.8-11.7 6.8-.6 0-1.6 0-3-.4-3.3-.7-5.3-2.1-6.4-2.8-.8 1-1.3 1.8-1.3 3.1 0 .8.3 1.5.4 1.8.4.8 1 1.8 2.7 2.7 2.2 1.1 4.5 1.1 5.3 1.1.6 0 5.8-.1 8.9-2.2 1.3-.9 1.8-1.8 2.1-2.4l.5.3c-.8 1.5-1.5 2.4-2.8 3.5-1.3 1-4 2.6-8 2.6-.7 0-4.3-.1-6.7-1.8-.3-.2-1.1-.9-1.8-1.8-1.1-1.5-1.3-2.9-1.3-3.6 0-1.8 1.1-3.3 1.4-3.7-.6-.6-1.1-1.2-1.6-1.8-1.2-1.4-3.9-4.5-3.9-9.8 0-2.1.4-6.5 4.9-9.7 1.3-.9 2.6-1.5 4-2.2-.4-.2-.8-.4-1.1-.6-2.1-1.3-2.8-2.9-2.8-4 0-1.5.8-2.1 1.3-2.4zm7.4 30.7.4-.5c-.2-.3-.4-.5-.6-.7-.4-.4-1.4-.9-2.9-.9-.8 0-1.6.2-1.7.2.2.3.8 1.2 1.6 2s2.7 2.2 5.6 2.2c1.3 0 3.7-.4 6-2.6 2.6-2.6 3.7-6.3 3.7-9.9 0-1.5-.1-5.7-3.2-9.3-.5-.5-1.6-1.8-3.3-2.6-1.1-.5-2.5-.9-5.1-1-3.2-.1-3 0-5-.6-1.7 2.7-3 4.5-3 10.6 0 .9 0 1.8.1 2.7.3 3.2 1 5 2.3 8 .4-.1 1.9-.7 3.4-.7 1.4 0 2.3.3 3.6.9.4-.7.7-1.4.7-2.2 0-.6-.2-1.2-.3-1.4-.4-.8-1.2-1.4-2.2-2.8-.4-.5-2.3-3.5-2.3-6.3 0-2.2 1.1-4.5 2.6-6.1.4-.4.7-.7 1.7-1.4-.2.7-.4 1.2-.4 1.9 0 1.8 1.3 3.3 2.3 4.5.3.4.6.7.8 1.1.5.7 1.8 2.3 1.8 4.8 0 1.1-.2 2.4-1.4 4.6-1.4 2.5-2.8 3.9-4.7 6zm17 1.7c3.7-.1 4.6-.9 4.6-2.6v-25c0-1.7-.9-2.5-4.6-2.6v-.5h26.5l.3 10.8-.6.1c-3.1-7.1-5.2-10.1-10.7-10.1h-4.3v14.3h1.9c3.6 0 5.5-1.4 6.7-6h.6v13.1h-.6c-1.2-4.6-3.2-6.2-6.7-6.2h-1.9v12.2c0 1.8.7 2.5 4.7 2.7v.5h-15.9z" fill-rule="evenodd"/></svg>