<svg viewBox="0 0 32 32" xmlns="http://www.w3.org/2000/svg">
  <circle cx="16" cy="16" fill="#fff" r="14.4"/>
  <path d="M16.2 32C7.3 32 .2 25.1 0 16.2 0 7.3 7.1 0 15.8 0c8.9 0 16 6.9 16.2 15.8.2 8.7-6.9 16-15.8 16.2zm-.4-29.6C8.4 2.4 2.4 8.6 2.4 16.2c.2 7.5 6.2 13.4 13.7 13.4 7.6-.2 13.6-6.3 13.4-13.7-.1-7.6-6.2-13.5-13.7-13.5zm0 24.5c-4.8 0-8.9-3.2-10-7.6-.3 0-.6-.1-.8-.4-.5-.5-.5-1.2-.1-1.7.4-.4 1-.7 1.6-.7 1-.2 1.8.3 2 .4.6.4.7 1.1.3 1.7-.2.2-.4.4-.6.5 1 3.2 4.3 5.5 7.9 5.4 3.8 0 6.9-2.3 7.8-5.5-.4-.1-.8-.3-.9-.7-.3-.6 0-1.3.5-1.6.2-.1.8-.3 1.8-.3h.2c.1 0 .2 0 .3.1.5.1.9.3 1.2.7.5.5.5 1.2 0 1.7-.2.2-.4.3-.6.3-1.1 4.5-5.2 7.8-10.3 7.8-.1-.1-.2-.1-.3-.1zm4.4-16c0 1.9.8 3.4 1.5 3.4s1.3-1.5 1.3-3.4-.8-3.4-1.5-3.4c-.8 0-1.3 1.5-1.3 3.4m-5.5.2c0 1.9.8 3.4 1.5 3.4s1.3-1.5 1.3-3.4-.7-3.4-1.5-3.4-1.3 1.5-1.3 3.4m-5.9 0c0 1.9.8 3.4 1.5 3.4.8 0 1.3-1.5 1.3-3.4s-.8-3.4-1.5-3.4-1.3 1.5-1.3 3.4"/>
</svg>
