<svg viewBox="0 0 32 32" xmlns="http://www.w3.org/2000/svg">
  <path d="M21.2 19.5v-5.4c0-.6-.5-1-1-1h-.1V5.5c0-1.9-2.1-4-3.6-5-.9-.5-1.6-.7-2.1-.4C12.8.9 12 3.5 12 5.4v7.7h-.1c-.6 0-1 .5-1 1v5.4c-.3.2-.5.5-.5.8V31c0 .6.5 1 1 1h9.3c.6 0 1-.5 1-1V20.4c0-.4-.2-.7-.5-.9zm-2-4.3v4.2h-6.4v-4.2zm.4 14.8h-7.3v-8.6h7.3z"/>
  <path d="M19.7 21.4h-7.3V30h7.3zM17.8 6.9c-1.1-.1-2-.5-2.6-1.2-1.3-1.5-1.2-4-1.2-4.1 0-.4.4-.7.8-.6.4 0 .6.4.6.7 0 0-.1 2 .8 3.1.4.4.9.7 1.6.7.4 0 .7.3.7.7s-.3.7-.7.7zm1.4 8.3h-6.4v4.2h6.3z" fill="#fff"/>
</svg>
