<svg width="98" height="32" fill="none" xmlns="http://www.w3.org/2000/svg"><path fill-rule="evenodd" clip-rule="evenodd" d="M10.35 2.245l-2.832-.01h-4.39c-.307 0-2.66.02-2.66.02L.426 6.058 0 6.068l.026-4.276L.01.036c1.497.073 6.9.12 12.506.12 6.536 0 10.75-.068 12.402-.114l-.02 1.948.036 4.328-.447-.005c.005-.354-.073-1.788-.067-1.928 0-.052-.094-1.98-.11-2.125l-1.875-.026h-5.627l-2.156.01.005 26.685c0 .037.041 1.751.047 2.105.218.03 2.301.176 2.675.176h.146v.728c-.114 0-.25.01-.369.01-1.185-.01-3.097-.156-4.453-.156-1.335 0-3.22.13-4.619.15-.036 0-.322-.004-.43-.01l-.006-.774c.016 0 .099 0 .229-.005.587-.026 2.041-.12 2.416-.15l.057-.011V2.245zm25.256 29.713c-1.096 0-2.962-.181-4.36-.181-1.381 0-3.257.181-4.608.181-.114 0-.317-.025-.426-.025v-.76c.265-.004 1.46-.113 1.793-.14.39-.025.748-.046.909-.098 0 0 .005-.915.01-2.328.016-4.894.042-18.735 0-24.996-.005-.66-.01-2.338-.01-2.577-.255-.026-.608-.057-.858-.094-.316-.015-1.62-.14-1.844-.155l-.01-.759c1.293 0 3.216.13 4.774.13 1.492 0 3.508-.13 5.04-.13l-.01.79c-.244.015-.831.052-.852.057-.447.041-1.694.182-2 .208v2.436c0 5.607-.006 20.28-.011 25.22v1.6c0 .38 0 .603.005.619.005.03.79.104.972.114.343.041 1.766.104 1.808.114h.093v.759c-.093-.01-.322.015-.415.015zm9.85-21.296s-.706 3.907-1.724 9.414c-.54 2.977-1.658 10.422-1.736 10.91.645.094 1.912.198 2.26.188.078 0 .214.005.318.005v.754c-.146.02-.484.02-.494.02-1.221-.026-2.104-.12-3.424-.12-.348 0-2.182.094-2.832.12-.27.01-.65-.015-.722-.015v-.748c.063 0 .192-.027.27-.032a28.06 28.06 0 0 0 2.25-.218c.062-.364.722-4.037.93-5.336.81-4.302 3.2-18.673 3.497-20.611.26-2.094.566-4.697.592-4.983.634.016 1.725-.01 1.725-.01s2.115 6.567 2.458 7.528c.342.962 6.8 17.577 6.8 17.577s3.03-7.16 5.731-14.838c.546-1.554 1.263-3.585 1.793-5.227C63.922 2.634 64.774 0 64.774 0h1.663s.41 2.936.556 4.24c.426 3.803 3.2 19.255 4.177 24.336.244 1.273.426 2.375.426 2.375.286.02 1.408.13 2.073.186.14.01.514.032.598.032l.005.764s-.302.015-.468.015c-1.491-.01-3.808-.145-5.242-.145-1.273 0-2.5.109-3.772.135-.219.005-.437-.005-.655-.005v-.76c.005 0 .177-.01.265-.004.623-.032 2.27-.192 2.437-.198 0-.28-.088-1.241-.224-2.224-.093-.696-.249-1.88-.415-3.05-.364-2.27-2.042-11.69-2.54-14.303-.084-.431-.136-.67-.136-.67s-5.2 13.342-6.25 15.966c-.104.26-.177.442-.198.499a277.73 277.73 0 0 0-1.844 4.79l-1.481-.01-8.105-20.83-.187-.477zm51.448-4.39h-.431l-.005-.224c-.047-.556-.14-2.13-.255-3.455-.01-.12-.031-.208-.031-.208-.255-.01-1.304-.042-1.32-.057-.015-.016-.852-.026-.867-.037-.01-.005-2.744-.02-5.565-.02-1.928 0-3.819.01-4.983.01-.285 0-1.309.041-1.309.041l-.005 12.558 8.064.026c.036 0 2.135-.067 2.187-.062.13 0 1.569-.083 1.62-.104 0 0 .022-.13.058-.229.114-.758.265-1.48.301-2.047 0 0 .037-.239.042-.405l.457-.01c0 .057.02.202.02.41-.004.759-.056 2.328-.056 3.357 0 1.48.041 2.82.052 3.491.005.192-.005.499-.005.499h-.504c-.01-.073-.016-.146-.026-.224a41.45 41.45 0 0 0-.297-2.332c-.005-.047-.03-.203-.041-.302a58.715 58.715 0 0 0-1.299-.052c-.156-.005-2.125-.02-4.333-.02-.904 0-2.536.041-3.227.041-.81 0-2.145.052-3.013.083l.01 11.389.037 1.465 4.894.083 6.972-.005c.032 0 1.595-.062 2.084-.052.104 0 .312-.015.312-.015.046-.37.104-1.112.16-1.824.006-.083.177-1.974.177-2.478l.432-.006c0 .478-.094 6.448-.094 6.448-.785 0-3.195 0-6.178-.047-1.808-.025-3.818-.025-5.803-.057-1.61-.02-3.206-.083-4.655-.078-2.063 0-4.09.14-4.874.14-.177 0-.499-.01-.566-.01v-.748h.145c.483 0 1.907-.088 2.65-.223 0-.151.047-2.011.047-2.047l-.005-24.638c0-1.138-.021-3.04-.021-3.206-.421-.052-.572-.078-.66-.093a32.448 32.448 0 0 0-1.798-.172A2.048 2.048 0 0 1 75.046.8s0-.738-.005-.748c.109.005.327-.01.722-.01.831.005 2.359.124 4.23.13 1.173 0 3.07-.058 4.426-.073 1.938 0 3.403-.021 5.279-.031C92.758.047 95.37.026 96.39.02h.462v.202c0 .24-.01.655-.005 1.164.016 1.57.057 4.068.057 4.884z" fill="#000"/></svg>