<svg enable-background="new 0 0 124 32" viewBox="0 0 124 32" xmlns="http://www.w3.org/2000/svg"><path clip-rule="evenodd" d="m36.2 32c-3.6 0-7-2-9.3-4.8-2.5-3.1-3.8-7.2-3.8-11.2 0-3.9 1.1-7.7 3.5-10.8 2.3-3 5.8-5.2 9.7-5.2 3.6 0 7 2 9.2 4.8 2.6 3.2 3.8 7.2 3.8 11.2 0 3.8-1.2 7.7-3.5 10.8-2.3 3-5.8 5.2-9.6 5.2zm-36.2-31.2h10.9v.3h-2.7l8.1 22.2 6.8-22.2h-2.7v-.3h5.9v.3h-2.6l-9.6 30.7-11.2-30.7h-2.9zm73.1-.6v10.6h-.2c-.5-2.1-1.1-4.1-2.2-6-1.3-2.2-3.5-4.6-6.2-4.6-6.4 0-7 11.4-7 15.8 0 3.9.3 7.9 1.7 11.6 1 2.6 2.4 3.8 5.1 3.8 2.1 0 4.4-1.1 5.5-2.9.3-.5.3-1 .3-1.6v-.1-8.2h-2.8v-.3h10.2v.3h-2.5v12.3h-.2c-.6-1-1.6-1.7-2.8-1.7-.9 0-1.7.3-2.5.7l-.7.4c-1.6.7-3.1 1.2-4.8 1.2-7.9 0-12.1-8.4-12.1-15.4 0-5.1 2-10.6 6.1-13.8 1.9-1.2 4.2-2.3 6.6-2.3.9 0 1.9.3 2.7.6l.6.2c.7.3 1.5.5 2.3.5 1 0 1.8-.6 2.6-1.2zm3 .6h10.9v.3h-2.9v23.6c0 3.7 3.8 6 7.1 6 3.6 0 6.6-2.5 6.6-6.2v-23.4h-3.4v-.3h28.1v11h-.2c-.3-2.9-.9-5.9-2.9-8.1-2-2.3-4.8-2.5-7.6-2.5h-3v14.1c.6.1 1.3.1 1.9.1 3.8 0 4.8-2.6 5-5.9h.3v12.4h-.3c-.5-3-1.8-6.1-5.3-6.1-.5 0-1.1 0-1.6.1v15.1h4.6c2.4 0 4.7-1 6.4-2.7 1.4-1.4 2.4-3.2 2.8-5.2.2-1.1.3-2.2.3-3.3h.2v11.5h-22v-.3h2.6v-29.9h-5.4v23.5c0 4.9-4.6 7-8.9 7-4.9 0-10.3-2.4-10.3-8v-22.5h-3zm-32.3 15.2c0-4.4-1.6-15.5-7.6-15.5s-7.6 11.1-7.6 15.5 1.6 15.5 7.6 15.5 7.6-11 7.6-15.5z" fill-rule="evenodd"/></svg>